<svg xmlns="http://www.w3.org/2000/svg" width="132.378" height="58.975" viewBox="0 0 132.378 58.975"><g transform="translate(0 27)"><path d="M169.933,18.653A18.653,18.653,0,1,1,151.276,0a18.658,18.658,0,0,1,18.657,18.653" transform="translate(-83.455 -27)" fill="#9f9f9f"/><path d="M159.331,23.661a14.832,14.832,0,0,1-5.352,4c-1.575.644-2.277.665-2.348-1.1-.134-3.394,1.375-9.689,2.923-15.34,1.337-4.9,1.521-5.744-.8-6.5-1.76-.565-3.01-.175-5.593,2.206-3.337,3.073-8.417,10.052-10.973,15.366.654.58,1.379,1.152,1.919,1.542.58.418,1.04.288,1.467-.374a27.919,27.919,0,0,1,8.688-8.3c.168-.6.346-1.2.524-1.777a36.419,36.419,0,0,0-5.48,3.252c3.119-5.721,7.638-10.353,8.465-9.99.529.228-1.282,4.84-2.578,9.542-1.486,5.384-2.236,9.49-2,12.5.213,2.735,2.358,3.461,5.556,2.061a15.474,15.474,0,0,0,6.347-5.625l-.725-1.484a.1.1,0,0,1-.033.03m-.919-11.976a9.514,9.514,0,0,0-2.735-.105c-.068.241-.146.525-.228.844,2.406-.555,4.586-.229,6.027,1.838,1.412,2.04.546,5.215-.887,7.634l.626,1.245c.006-.017.02-.028.025-.046,3.893-8.05-.444-10.972-2.829-11.41" transform="translate(-83.214 -26.763)" fill="#eaeaea"/><path d="M64.609,17.811a1.867,1.867,0,1,1-1.862-1.873,1.86,1.86,0,0,1,1.862,1.873" transform="translate(3.215 7.464)" fill="#9f9f9f"/><path d="M6.014,11.718,3.8,19.656H8.213l-2.2-7.938ZM9.7,24.592l-.909-2.94H3.212l-.905,2.94H0L4.623,9.655H7.454l4.559,14.937ZM58.2,9.655h2.154V24.592H58.2Zm-4.357,8.5a4.257,4.257,0,0,0-.378-2.09,2.525,2.525,0,0,0-2.3-1.424,2.487,2.487,0,0,0-1.632.574,4.2,4.2,0,0,0-1.233,2.94h5.54ZM48.327,19.6a3.722,3.722,0,0,0,.215,1.017,3.55,3.55,0,0,0,2.1,2.227,5.358,5.358,0,0,0,1.946.3,7.6,7.6,0,0,0,2.691-.491l-.02,1.729a8.9,8.9,0,0,1-3,.472,7.261,7.261,0,0,1-3.156-.64,5.6,5.6,0,0,1-2.982-5.425,7.141,7.141,0,0,1,.454-2.579,4.879,4.879,0,0,1,4.614-3.247,4.653,4.653,0,0,1,4.74,4.972,5.958,5.958,0,0,1-.24,1.66H48.327Zm-3.17-4.563h-3.2V20.9a4.7,4.7,0,0,0,.072,1.017,1.735,1.735,0,0,0,1.848,1.1,5.171,5.171,0,0,0,1.513-.226l-.022,1.783a8.812,8.812,0,0,1-1.942.213A4.644,4.644,0,0,1,41.3,24.33c-1.444-.775-1.492-2.3-1.492-3.691V11.085l2.153-1.677v3.84h3.2v1.786Zm-10.162,3.83c-1.275,0-3.058.046-4.118.928a1.925,1.925,0,0,0-.762,1.584,1.538,1.538,0,0,0,.338,1.04c.447.572,1.253.8,2.674.8a10.774,10.774,0,0,0,1.867-.166Zm-6.085-4.9c.237-.112.491-.236.751-.355a9.158,9.158,0,0,1,3.324-.64,4.471,4.471,0,0,1,3.077.9,2.554,2.554,0,0,1,.688.854,4.488,4.488,0,0,1,.355,2.1l-.024,7.6a20.514,20.514,0,0,1-4.047.425,11.248,11.248,0,0,1-2.044-.167,3.249,3.249,0,0,1-1.816-5.752c1.6-1.4,3.881-1.488,5.819-1.488v-.524a2.8,2.8,0,0,0-.142-1.188c-.23-.544-.873-1.066-2.2-1.066a7.852,7.852,0,0,0-3.107.737,5.272,5.272,0,0,0-.662.354l.022-1.8ZM26.4,15.524h-.024a2.187,2.187,0,0,0-.4-.258,3.9,3.9,0,0,0-1.869-.453,3.689,3.689,0,0,0-1.609.358,3.774,3.774,0,0,0-2.154,3.666,4.418,4.418,0,0,0,.286,1.69,3.7,3.7,0,0,0,3.552,2.486,4.2,4.2,0,0,0,2.294-.7l.03,1.827a3.062,3.062,0,0,1-.645.334,5.369,5.369,0,0,1-2.078.379,5.679,5.679,0,0,1-5.687-6.018,6.562,6.562,0,0,1,.425-2.387,5.287,5.287,0,0,1,5.161-3.485,5.874,5.874,0,0,1,2.722.64v1.919ZM13.612,9.655h2.15V24.592h-2.15Zm118.53,5.379h-3.2V20.9a4.343,4.343,0,0,0,.075,1.017,1.734,1.734,0,0,0,1.844,1.1,5.136,5.136,0,0,0,1.512-.226l-.018,1.783a8.8,8.8,0,0,1-1.941.213,4.652,4.652,0,0,1-2.136-.453c-1.442-.775-1.491-2.3-1.491-3.691V11.085l2.156-1.677v3.84h3.2v1.786ZM116.4,13.23v2.227a6.173,6.173,0,0,1,.472-.878,3.63,3.63,0,0,1,3.076-1.613,4.118,4.118,0,0,1,2.419.734c1.419,1.07,1.465,2.678,1.465,4.265v6.628h-2.152V18.225a3.412,3.412,0,0,0-.807-2.723,2.187,2.187,0,0,0-1.562-.575,2.744,2.744,0,0,0-1.658.6c-1.182.969-1.157,2.607-1.157,3.955v5.114h-2.156V13.23h2.06Zm-6.538,4.927a4.257,4.257,0,0,0-.378-2.09,2.537,2.537,0,0,0-2.294-1.424,2.509,2.509,0,0,0-1.637.574,4.2,4.2,0,0,0-1.233,2.94Zm-5.515,1.44a3.775,3.775,0,0,0,.215,1.017,3.52,3.52,0,0,0,2.108,2.227,5.275,5.275,0,0,0,1.932.3,7.637,7.637,0,0,0,2.7-.491l-.024,1.729a8.913,8.913,0,0,1-3.006.472,7.274,7.274,0,0,1-3.152-.64,5.61,5.61,0,0,1-2.981-5.425,7.135,7.135,0,0,1,.449-2.579,4.9,4.9,0,0,1,4.618-3.247,4.648,4.648,0,0,1,4.734,4.972,5.922,5.922,0,0,1-.232,1.66h-7.364Zm-3.748-4.073h-.025a2.451,2.451,0,0,0-.4-.258,3.922,3.922,0,0,0-1.873-.453,3.691,3.691,0,0,0-1.608.358,3.772,3.772,0,0,0-2.154,3.666,4.474,4.474,0,0,0,.282,1.69,3.709,3.709,0,0,0,3.556,2.486,4.24,4.24,0,0,0,2.3-.7l.025,1.827a2.891,2.891,0,0,1-.642.334,5.393,5.393,0,0,1-2.085.379,5.684,5.684,0,0,1-5.687-6.018,6.64,6.64,0,0,1,.432-2.387,5.286,5.286,0,0,1,5.163-3.485,5.887,5.887,0,0,1,2.719.64v1.919ZM82.953,13.23v6.443c0,1.036.026,2.171,1,2.839a2.905,2.905,0,0,0,1.656.449,2.58,2.58,0,0,0,1.636-.478c.944-.779.874-2.175.874-3.244V13.23H90.27v6.009a9.373,9.373,0,0,1-.212,2.637,3.716,3.716,0,0,1-1.823,2.34,5.193,5.193,0,0,1-2.675.64,6.276,6.276,0,0,1-1.541-.167,4.071,4.071,0,0,1-2.864-2.373A7.959,7.959,0,0,1,80.8,19.5V13.23ZM73.725,9.655V22.581h5.927v2.011H71.567V9.655Z" transform="translate(0 7.12)" fill="#9f9f9f"/></g></svg>