<svg xmlns="http://www.w3.org/2000/svg" width="80" height="80" viewBox="0 0 80 80">
  <g id="Group_5004" data-name="Group 5004" transform="translate(-929 -752.525)">
    <rect id="Rectangle_1572" data-name="Rectangle 1572" width="80" height="80" transform="translate(929 752.525)" fill="none"/>
    <g id="shipment-1" transform="translate(934.871 763.739)">
      <path id="Path_9393" data-name="Path 9393" d="M0,581.386v22.665H6.335v-.527a3.041,3.041,0,0,1,6.083,0v.527H34.63V581.386ZM33.576,603H13.438a4.1,4.1,0,0,0-8.122,0H1.054V582.44H33.576V603Z" transform="translate(0 -545.549)" fill="#4b555f"/>
      <path id="Path_9394" data-name="Path 9394" d="M32.988,614.362v18.1h2.065a5.325,5.325,0,0,1,10.054,0H63.052v-18.1Zm15.031,15.132a6.69,6.69,0,1,1,6.69-6.69A6.69,6.69,0,0,1,48.019,629.494Z" transform="translate(-30.705 -576.242)" fill="#dfdfdf"/>
      <path id="Path_9395" data-name="Path 9395" d="M114.624,645.31H104.6v18.24h3.687v-.527a3.041,3.041,0,1,1,6.082,0v.527h3.793V655.38Zm2.486,17.187h-1.72a4.1,4.1,0,0,0-8.122,0h-1.614V646.364h8.224l3.232,9.2ZM80.4,658.928a4.094,4.094,0,1,0,4.094,4.094A4.1,4.1,0,0,0,80.4,658.928Zm0,7.134a3.04,3.04,0,1,1,3.041-3.04A3.044,3.044,0,0,1,80.4,666.062Z" transform="translate(-71.024 -605.048)" fill="#4b555f"/>
      <path id="Path_9396" data-name="Path 9396" d="M527.212,842.04a4.094,4.094,0,1,0,4.094,4.094A4.1,4.1,0,0,0,527.212,842.04Zm0,7.134a3.04,3.04,0,1,1,3.04-3.04A3.044,3.044,0,0,1,527.212,849.174Z" transform="translate(-486.907 -788.16)" fill="#4b555f"/>
      <path id="Path_9397" data-name="Path 9397" d="M142.022,704.676a1.811,1.811,0,1,0,1.811,1.811A1.813,1.813,0,0,0,142.022,704.676Zm-30.929,0a1.811,1.811,0,1,0,1.811,1.811A1.813,1.813,0,0,0,111.093,704.676Zm34.018-7.988-1.481-4.3a.568.568,0,0,0-.537-.383h-4.512a.568.568,0,0,0-.568.568v4.3a.567.567,0,0,0,.568.568h5.993A.567.567,0,0,0,145.112,696.688Z" transform="translate(-101.717 -648.514)" fill="#dfdfdf"/>
      <path id="Path_9398" data-name="Path 9398" d="M113.764,188.267h2.108v1.054h-2.108ZM83.554,163.5h1.054v-1.054H83.554Zm0-2.107h1.054v-1.054H83.554Zm0-4.214h1.054v-1.054H83.554Zm0,2.107h1.054v-1.054H83.554Zm0,8.428h1.054v-1.054H83.554Zm0,2.107h1.054v-1.054H83.554Zm0-4.214h1.054V164.55H83.554Zm0-10.535h1.054v-1.054H83.554Zm6.753-11.919.089,1.05q.271-.023.544-.023H91.4v-1.054H90.94C90.73,143.122,90.516,143.131,90.307,143.149Zm-4.125,1.709.679.806a6.416,6.416,0,0,1,.788-.568l-.549-.9A7.461,7.461,0,0,0,86.182,144.858Zm6.276-.683h1.054v-1.054H92.458Zm-4.347-.492.4.973a6.281,6.281,0,0,1,.923-.3l-.249-1.024A7.352,7.352,0,0,0,88.111,143.684Zm6.454-.561v1.054h1.054v-1.054Zm-10.771,5.511,1.019.267a6.306,6.306,0,0,1,.318-.918l-.966-.421a7.4,7.4,0,0,0-.371,1.072Zm-.24,1.875v.346h1.054v-.346a6.424,6.424,0,0,1,.033-.653l-1.048-.107A7.566,7.566,0,0,0,83.554,150.509Zm0,2.453h1.054v-1.054H83.554Zm1.143-6.4.89.564a6.3,6.3,0,0,1,.581-.778l-.794-.693A7.444,7.444,0,0,0,84.7,146.56ZM140.219,188l.759.73a7.4,7.4,0,0,0,.721-.874l-.862-.606A6.393,6.393,0,0,1,140.219,188Zm1.115-1.584.944.467a7.383,7.383,0,0,0,.423-1.051l-1-.317a6.3,6.3,0,0,1-.362.9Zm-2.655,2.76.5.925a7.357,7.357,0,0,0,.951-.617l-.639-.837a6.383,6.383,0,0,1-.815.529Zm-1.823.653.2,1.035a7.349,7.349,0,0,0,1.094-.3l-.355-.992A6.3,6.3,0,0,1,136.856,189.833ZM130.642,191H131.7v-1.054h-1.054Zm2.107,0H133.8v-1.054h-1.054Zm2.906-1.054h-.8V191h.8q.137,0,.273-.005l-.038-1.053q-.117,0-.235,0Zm6.333-7.4h1.054V181.5h-1.054Zm-.072,2.024,1.042.158a7.554,7.554,0,0,0,.084-1.128l-1.054.01A6.4,6.4,0,0,1,141.916,184.574Zm.072-12.559h1.054v-1.054h-1.054Zm0-2.107h1.054v-1.054h-1.054Zm0-2.107h1.054v-1.054h-1.054Zm0,12.642h1.054v-1.054h-1.054Zm0-15.8v1.054h1.054V164.64Zm0,13.7h1.054v-1.054h-1.054Zm0-4.214h1.054v-1.054h-1.054Zm0,2.107h1.054v-1.054h-1.054Zm-38.305-33.106v19.219h26.224V143.122Zm25.171,18.165H104.737V144.176h24.117v17.112Z" transform="translate(-77.77 -137.623)" fill="#4b555f"/>
      <path id="Path_9399" data-name="Path 9399" d="M407.342,176.086v14.655H429V176.086Zm5.907,11.287v2.848h-3.284v-2.848H408.35l3.262-3.607,3.262,3.607Z" transform="translate(-379.145 -168.305)" fill="#2cc852"/>
      <path id="Path_9400" data-name="Path 9400" d="M737.966,143.124v19.219h16.226V143.124Zm15.172,18.165H739.02V144.177h14.118Z" transform="translate(-686.882 -137.624)" fill="#4b555f"/>
      <path id="Path_9401" data-name="Path 9401" d="M779.46,176.086v3.93l-1.233-1.127-1.085,1.127-1.127-1.127-1.191,1.127v-3.93H770.94v14.655H782.6V176.086Z" transform="translate(-717.574 -168.305)" fill="#2cc852"/>
      <path id="Path_9402" data-name="Path 9402" d="M736.172,63.676l-3.8,6.553h16.39l3.8-6.553Zm11.985,5.5H734.2l2.577-4.446h13.955Z" transform="translate(-681.678 -63.676)" fill="#4b555f"/>
      <path id="Path_9403" data-name="Path 9403" d="M790.762,96.638l-1.152,1.988h3.61l1.152-1.988Zm8.189,0L797.8,98.626h2.918l1.152-1.988Z" transform="translate(-734.952 -94.356)" fill="#2cc852"/>
      <path id="Path_9404" data-name="Path 9404" d="M360.506,63.676l-3.8,6.553h5.8l3.8-6.553Zm1.394,5.5h-3.364l2.577-4.446h3.364Zm-12.8-5.5H322.71l3.8,6.553H352.9Zm-24.56,1.054h23.953l2.577,4.446H327.114Z" transform="translate(-300.371 -63.676)" fill="#4b555f"/>
      <path id="Path_9405" data-name="Path 9405" d="M401.044,96.652H379.932l1.152,1.988H402.2Z" transform="translate(-353.632 -94.369)" fill="#2cc852"/>
      <path id="Path_9406" data-name="Path 9406" d="M189.8,151.31l-.718-.771-3.5,3.256,3.5,3.253.717-.772-2.669-2.482Zm-36.037-47.594-.717.771,2.668,2.483-2.669,2.484.718.771,3.5-3.256Zm38.751,2.728v7.438l1.706-1.618,1.144,1.145,1.1-1.145,1.735,1.589v-7.41h-5.687Zm4.634,5.016-.728-.667-1.069,1.111-1.11-1.111-.673.638V107.5h3.58Zm-28.89,4.159-4.449,4.92h2.274v2.847h4.337v-2.847H172.7Zm1.108,3.866v2.847h-2.23v-2.847h-.954l2.076-2.3,2.076,2.3ZM153.1,140.29a7.217,7.217,0,1,0,7.217,7.217A7.225,7.225,0,0,0,153.1,140.29Zm0,13.38a6.163,6.163,0,1,1,6.163-6.163A6.17,6.17,0,0,1,153.1,153.669Z" transform="translate(-135.788 -100.944)" fill="#4b555f"/>
      <path id="Path_9407" data-name="Path 9407" d="M197.562,695.776l-4.246,4.461-2.07-2.454-.805.679,2.828,3.352,5.057-5.313Z" transform="translate(-177.257 -652.021)" fill="#4b555f"/>
    </g>
  </g>
</svg>
