<svg xmlns="http://www.w3.org/2000/svg" width="124.968" height="25.134" viewBox="0 0 124.968 25.134">
  <g id="D-Link_wordmark" transform="translate(-0.161 0.019)">
    <g id="g3" transform="translate(29.158 -0.019)">
      <path id="path5" d="M188.926,69.5h6.985c.484,0,.578.5.2,1.109l-1.406,2.313a2.269,2.269,0,0,1-1.563,1.109H186.16c-.484,0-.578-.5-.2-1.109l1.406-2.313a2.269,2.269,0,0,1,1.563-1.109" transform="translate(-185.726 -58.637)" fill="#9f9f9f"/>
      <path id="path7" d="M390.79,0c2.563-.234,5.61,1.781,4.11,4.422-1.438,2.391-6.641,3-8.2,2.86-.5-.047-1.313-.359-1.3-1.156a8.769,8.769,0,0,1,1.406-4.079A5.291,5.291,0,0,1,390.79,0" transform="translate(-354.197 0.019)" fill="#9f9f9f"/>
    </g>
    <path id="path9" d="M471.989,32.339c.8-.359.875.516.844.781v2.031c0,.391.328.2.5.141,2.406-1.016,4.844-2.531,7.938-2.453,2.75.063,3.578,2.235,3.563,4.735V48.216c0,.938.078,1.156.516,1.516a4.769,4.769,0,0,0,1.156.141c.3,0,.3.219.219.438l-.656,1.672a.707.707,0,0,1-.656.359h-6.251a2.63,2.63,0,0,1-2.8-2.531V39.683c0-2.078-3.391-2.235-3.391.563v8.532c.031.406-.094.938,1,1.016.719,0,1.234-.078.875.8l-.531,1.344a.758.758,0,0,1-.7.391H463.285a.4.4,0,0,1-.359-.438L463.66,50c.031-.078.109-.219.2-.219.344-.016.578-.188.641-1.156V37.527c0-.906-.828-.8-1.453-.8-.281,0-.438-.078-.359-.438l.578-1.234c.078-.3.219-.406.438-.438,3.407-.516,5.375-.75,8.282-2.281" transform="translate(-390.236 -27.229)" fill="#9f9f9f"/>
    <path id="path11" d="M629.62,2.82c.594-.094.938.266.938.922V14.368c.078.578.5.188.625.016l3.672-4.657a2.651,2.651,0,0,1,1.906-.578h8c.141,0,.219.172.078.359l-1.016,1.375c-.094.125-.172.281-.656.281h-.391a.92.92,0,0,0-.578.219l-4.11,4.61c-.859,1.031-.656,1.469.109,2.2l5.641,5.782a6.387,6.387,0,0,0,3.688,1.016c.344.016.266.3.141.438L646.215,27.1a1.776,1.776,0,0,1-1.141.359H639.48a6.084,6.084,0,0,1-3.032-.875c-2.031-1.672-3.313-3.782-5.3-5.657-.344-.328-.625-.172-.625.109v2.422c0,1.094.453,1.375,2.047,1.453.609.031.438.359.3.719l-.531,1.375a.649.649,0,0,1-.641.438H620.134c-.359,0-.594-.109-.516-.328l.641-1.7c.141-.328.234-.406.719-.438.8-.047,1.094-.313,1.109-1.5V7.852c0-.531-.125-.734-.5-.688l-1.469.2c-.438.063-.516-.266-.344-.578l.906-1.516c.172-.3.484-.328.828-.391a44.312,44.312,0,0,0,7.766-2.031.908.908,0,0,0,.344-.031" transform="translate(-522.646 -2.383)" fill="#9f9f9f"/>
    <g id="g13" transform="translate(0.161 1.109)">
      <path id="path15" d="M390.808,42.812c.359-.141.8.141.719.938V57.517c.188.969.5,1.2,1.359,1.3,0,0,.594.016.438.438l-.563,1.453c-.219.438-.359.516-.875.516H381.12c-.281-.016-.391-.2-.3-.516l.531-1.375c.094-.188.141-.375.5-.438,1.094-.3,1.156-.438,1.156-1.891V48.766c0-1.375-.219-1.313-1.813-1.156a.315.315,0,0,1-.219-.438l.8-1.516c.219-.438.5-.438.5-.438a20.353,20.353,0,0,0,8.532-2.406" transform="translate(-321.311 -37.218)" fill="#9f9f9f"/>
      <path id="path17" d="M15.309,31.187c2.344.031,5.172.156,7.8-1.891,1.875-1.234,4.125-6.235,4.938-8.3a4.8,4.8,0,0,0,0-3.578A36.1,36.1,0,0,0,23.2,9.153C21.247,7.356,19.419,7.2,16.372,7.2h-13A1.618,1.618,0,0,0,2,7.716L1.058,9.45c-.141.719.719.8.719.8H3.105c.359,0,.438.281.438.578v16.1c0,.719-.813,1.156-1.469,1.3a1.394,1.394,0,0,0-.938.516L.2,30.546a.473.473,0,0,0,.438.656c5.11,0,9.548.016,14.673-.016m-3.3-2.985V10.9c0-.438.078-.656.5-.719h1.266a1.429,1.429,0,0,1,1.516.625l4.36,7.61a1.627,1.627,0,0,1,0,1.672l-4.422,7.469c-.531.734-.781.594-1.453.641H12.012Z" transform="translate(-0.161 -7.2)" fill="#9f9f9f"/>
    </g>
    <path id="path19" d="M250.857,8.216c.563,0,.766.328.656.547l-1.156,2.11s-.141.438-1.156.438h-.109c-.656,0-1.172,0-1.234,1.313V27.9c0,.656.281,1.2,1.078,1.234h1.578c2.578-.031,2.516-2.688,3.094-5a1.171,1.171,0,0,1,.656-.8l2.281-.8c.3,0,.578,0,.656.5v7.688a1.256,1.256,0,0,1-1.453,1.3H236.121c-.719,0-.875-.219-.719-.656l.719-1.594a.948.948,0,0,1,.875-.438c1.453-.078,2.36-.094,2.344-2.313V12.747c0-.938-.219-1.516-1.172-1.516h-1.109c-.719,0-1.109-.25-.938-.656l1.016-1.891a.757.757,0,0,1,.8-.484h12.923" transform="translate(-198.434 -6.934)" fill="#9f9f9f"/>
  </g>
</svg>
