<svg xmlns="http://www.w3.org/2000/svg" width="255" height="184" viewBox="0 0 255 184">
  <g id="Group_5528" data-name="Group 5528" transform="translate(-401 -2166)">
    <rect id="Rectangle_1621" data-name="Rectangle 1621" width="255" height="184" transform="translate(401 2166)" fill="none"/>
    <g id="Group_5317" data-name="Group 5317" transform="translate(599.94 2226.456)">
      <path id="Path_9715" data-name="Path 9715" d="M287.911,182.01l-7.261-42.821a5.058,5.058,0,0,0-2.441-3.528l-14.452-8.411a5.058,5.058,0,0,0-6.378,1.076l-10.89,12.685a5.06,5.06,0,0,0-1.148,4.134l7.261,42.821a5.056,5.056,0,0,0,5.828,4.143l25.341-4.278A5.057,5.057,0,0,0,287.911,182.01Zm-29.159-42.584a3.726,3.726,0,1,1,4.3,3.054h0a3.725,3.725,0,0,1-4.294-3.052Z" transform="translate(-245.27 -105.966)" fill="#e7e7e8"/>
      <path id="Path_9716" data-name="Path 9716" d="M264.764,135.1a3.706,3.706,0,0,1,1.839,6.982,255.647,255.647,0,0,1,6.879,47.9l12.713-2.143a5.056,5.056,0,0,0,4.143-5.828l-7.261-42.821a5.058,5.058,0,0,0-2.441-3.528l-14.452-8.411a5.042,5.042,0,0,0-3.931-.474Q263.6,130.922,264.764,135.1Z" transform="translate(-247.697 -105.968)" fill="#fff"/>
      <path id="Path_9717" data-name="Path 9717" d="M263.52,181.7a1.855,1.855,0,0,1-2.695-2.521l14.929-19.756a1.856,1.856,0,0,1,2.96,2.237l-14.929,19.755A1.856,1.856,0,0,1,263.52,181.7Z" transform="translate(-247.439 -110.56)" fill="#759b5e"/>
      <path id="Path_9718" data-name="Path 9718" d="M283.423,182.806a4.126,4.126,0,0,1-6.784-2.554h0a4.123,4.123,0,1,1,6.784,2.554Zm-3.943-4.56a2,2,0,0,0-.273.292,1.884,1.884,0,0,0-.366,1.406h0a1.893,1.893,0,1,0,.638-1.7Zm-1.739,1.852.005,0Z" transform="translate(-249.747 -112.968)" fill="#759b5e"/>
      <path id="Path_9719" data-name="Path 9719" d="M263.188,166.8a4.126,4.126,0,0,1-6.784-2.554h0a4.123,4.123,0,1,1,6.784,2.554Zm-3.943-4.56a1.954,1.954,0,0,0-.273.292,1.887,1.887,0,0,0-.367,1.406h0a1.9,1.9,0,1,0,.638-1.7ZM257.5,164.1l.006,0Z" transform="translate(-246.856 -110.681)" fill="#759b5e"/>
      <path id="Path_9720" data-name="Path 9720" d="M261.3,133.766c6.468,1.811,12.035-8.437,14.075-12.723a73.272,73.272,0,0,0,5.307-17.682c.285-1.476,2.52-.809,2.236.65-1.543,7.945-3.705,15.981-8.1,22.872-2.776,4.353-7.51,10.885-13.462,9.294l-.37-.1a3.371,3.371,0,0,1-.013-1.23A3.062,3.062,0,0,1,261.3,133.766Z" transform="translate(-247.507 -102.531)" fill="#759b5e"/>
    </g>
    <g id="Group_5322" data-name="Group 5322" transform="translate(458.62 2171.705)">
      <g id="Group_5321" data-name="Group 5321">
        <g id="Group_5319" data-name="Group 5319" transform="translate(50.751)">
          <path id="Path_9723" data-name="Path 9723" d="M154.21,47.392c.616,1.151-.068,15.069-8.506,20.8-13.735,9.33-29.56,9.359-29.56,9.359l1.6-4.674s12.834-5.051,19.123-9.4C149,55.1,145.816,46.912,145.816,46.912,148.066,45.931,153.6,46.242,154.21,47.392Z" transform="translate(-114.241 -35.721)" fill="#498e24"/>
          <path id="Path_9724" data-name="Path 9724" d="M155.83,53.075c.494-2.967.45-5.244.215-5.683-.616-1.151-6.146-1.461-8.395-.48C147.65,46.912,151.688,46.342,155.83,53.075Z" transform="translate(-116.075 -35.721)" fill="#277f28"/>
          <path id="Path_9725" data-name="Path 9725" d="M117.738,73.792c-1.874-.305-1.6,4.674-1.6,4.674s15.827-.027,29.561-9.358a17.666,17.666,0,0,0,5.792-7.043C150.766,61.765,139.2,76.9,117.738,73.792Z" transform="translate(-114.24 -36.637)" fill="#277f28"/>
          <path id="Path_9726" data-name="Path 9726" d="M154.093,46.736c.042.075-7.092-3.3-18.536,6.453C129.91,58,116.026,76.9,116.026,76.9l-1.9-7.407S125.5,35.052,139.393,35.074C139.394,35.07,150.3,40.038,154.093,46.736Z" transform="translate(-114.123 -35.066)" fill="#97b684"/>
          <path id="Path_9727" data-name="Path 9727" d="M154.093,46.735c.03.054-7.089-7.644-13.944-8.946a9.949,9.949,0,0,0-8.324,2.176c-8.208,6.757-17.295,30.513-17.295,30.513l-.407-1S125.5,35.043,139.389,35.065C139.394,35.07,150.3,40.038,154.093,46.735Z" transform="translate(-114.123 -35.065)" fill="#749e19"/>
          <path id="Path_9728" data-name="Path 9728" d="M121.592,69.046l-5.565,9.48-1.9-7.407,5.813-8.031s-3.282,5.832-3.177,7.676a32.248,32.248,0,0,0,3.267-3.752s-3.462,4.92-2.641,6.014A37.064,37.064,0,0,0,121.592,69.046Z" transform="translate(-114.123 -36.697)" fill="#7faa48"/>
          <path id="Path_9729" data-name="Path 9729" d="M132.538,55.405a83.864,83.864,0,0,0,5.573-7.594c.661-1.072.975-2.273.467-2.792-.492-.5-1.679.7-2.128.155-.49-.6.782-2.562.187-3.051-.64-.534-1.952,1.479-2.653,2.339-.539.663-2.814,3.724-2.967,2.611-.121-.9,1.423-2.938,1.995-3.848.632-1.011,1.837-2.482,1.989-3.569.275-2.017-1.408-.024-2.122.887-1.122,1.432-2.244,2.884-3.333,4.417-1.34,1.884-2.9,3.5-4.265,5.347-.957,1.294-1.836,2.748-2.714,4.153-.664,1.061-1.468,3.286.008,2.306a8.926,8.926,0,0,0,1.557-1.6,9.9,9.9,0,0,1,1.287-1.564c1.383-.917.03,1.878-.425,2.6a3.461,3.461,0,0,0-.793,1.829c.022.59.29.738.793.214.528-.542.776-1.221,1.376-1.685.871-.666.608-.053.354.694a2.59,2.59,0,0,1-.262.5c.339.726,4.5-5.1,3.533-1.8-.274.939-4.151,4.378-3.92,5.465S130.984,57.4,132.538,55.405Z" transform="translate(-114.567 -35.281)" fill="#749e19"/>
        </g>
        <g id="Group_5320" data-name="Group 5320" transform="translate(0 17.95)">
          <path id="Path_9730" data-name="Path 9730" d="M104.55,76.97s-13.6,2.286-21.229,1.805C68.6,77.85,67.105,69.2,67.105,69.2a13.4,13.4,0,0,0-6.529,3.835l1.087,3.6c2.736,3.848,8.953,10.322,16.509,10.738,16.577.914,30.151-7.22,30.151-7.22Z" transform="translate(-60.254 -55.003)" fill="#498e24"/>
          <path id="Path_9731" data-name="Path 9731" d="M60.577,73.034l1.085,3.591c.45.634.984,1.331,1.613,2.068.079-7.9,3.831-9.5,3.831-9.5A13.411,13.411,0,0,0,60.577,73.034Z" transform="translate(-60.254 -55.003)" fill="#277f28"/>
          <path id="Path_9732" data-name="Path 9732" d="M105.108,77.435c1.448-1.229,3.775,3.183,3.775,3.183S95.309,88.754,78.731,87.84a17.638,17.638,0,0,1-8.595-3.048C70.607,84.157,88.323,91.163,105.108,77.435Z" transform="translate(-60.811 -55.47)" fill="#277f28"/>
          <path id="Path_9733" data-name="Path 9733" d="M66.722,55.482s-5.687,8.294-6.488,15.606l.425,1.406c1.525-1.52,6.677-5.452,18.691-3.461C86.671,70.244,108.3,79.276,108.3,79.276l-2.189-7.327S78.609,48.3,66.722,55.482Z" transform="translate(-60.234 -54.125)" fill="#97b684"/>
          <path id="Path_9734" data-name="Path 9734" d="M66.722,55.482s-5.687,8.294-6.488,15.606l.218.72c.757-2.869,2.949-9.959,7.026-13.6a9.946,9.946,0,0,1,8.254-2.426c10.515,1.56,30.546,17.232,30.546,17.232l-.162-1.062S78.609,48.3,66.722,55.482Z" transform="translate(-60.234 -54.125)" fill="#749e19"/>
          <path id="Path_9735" data-name="Path 9735" d="M100.922,74.884l9.658,5.255-2.189-7.327-9.122-3.886s5.819,3.3,6.679,4.942a32.043,32.043,0,0,1-4.733-1.532s5.5,2.43,5.364,3.793A37.077,37.077,0,0,1,100.922,74.884Z" transform="translate(-62.507 -54.987)" fill="#7faa48"/>
          <path id="Path_9736" data-name="Path 9736" d="M84.122,69.059a83.616,83.616,0,0,1-8.689-3.631c-1.119-.578-2.008-1.445-1.84-2.156.161-.68,1.8-.26,1.905-.96.112-.766-1.992-1.793-1.735-2.515.275-.791,2.43.26,3.479.636.806.29,4.331,1.739,3.886.707-.358-.829-2.735-1.783-3.692-2.27-1.062-.542-2.855-1.177-3.542-2.032-1.278-1.587,1.193-.746,2.273-.334,1.7.648,3.411,1.314,5.131,2.065,2.122.924,4.293,1.5,6.412,2.385,1.486.618,2.989,1.41,4.466,2.161,1.115.567,2.951,2.059,1.182,1.98a9,9,0,0,1-2.158-.566,9.8,9.8,0,0,0-1.91-.678c-1.656-.075.942,1.625,1.7,2.012a3.457,3.457,0,0,1,1.624,1.158c.287.515.131.783-.572.594A14.474,14.474,0,0,0,90,66.88c-1.091-.124-.551.267.052.779a2.575,2.575,0,0,0,.483.287c.084.8-6.482-2.05-3.954.283.72.665,5.815,1.61,6.179,2.662S86.483,69.972,84.122,69.059Z" transform="translate(-61.009 -54.229)" fill="#749e19"/>
        </g>
        <path id="Path_9737" data-name="Path 9737" d="M117.083,79.874c-.445,1.283-6.43,2.838-7.363,2.046s-3.758-9.371-2.952-10.646a4.332,4.332,0,0,1,1.974-1.2c.488-.185,1.281.813,1.824.671.572-.153.9-1.437,1.43-1.519a4.684,4.684,0,0,1,2.135,0C115.257,69.761,117.533,78.592,117.083,79.874Z" transform="translate(-62.935 -37.047)" fill="#498e24"/>
        <path id="Path_9738" data-name="Path 9738" d="M116.7,80.217c-.39,1.108-5.617,2.466-6.43,1.785s-3.257-8.089-2.552-9.192a3.823,3.823,0,0,1,1.725-1.041c.428-.16,1.118.7,1.591.573.5-.129.785-1.243,1.254-1.312a4.09,4.09,0,0,1,1.862,0C115.132,71.48,117.1,79.107,116.7,80.217Z" transform="translate(-62.991 -37.153)" fill="#97b684"/>
        <path id="Path_9739" data-name="Path 9739" d="M108.864,75.365a15.624,15.624,0,0,0,1.947,5.049c.129.178.4.76.627.8.641.109.175-.44.363-.92.493-1.258.464.171,1.3.309,1.071.177-1.136-4.951,1.263-1.729.507.679,1.216,1.45,1.224.129a14.935,14.935,0,0,0-.8-2.94c-.311-1.3-.3-2.933-1.62-2.715-1.367.23-.206,1.726-.895,2.721-.609-.469-.847-1.5-1.64-1.75-.95-.3-.732.6-.416,1.591-.553.114-.884-1.483-1.576-1.654Z" transform="translate(-63.053 -37.293)" fill="#749e19"/>
      </g>
      <rect id="Rectangle_1596" data-name="Rectangle 1596" width="96.562" height="22.237" transform="matrix(0.957, -0.289, 0.289, 0.957, 5.877, 54.372)" fill="#a7a7a7"/>
      <rect id="Rectangle_1597" data-name="Rectangle 1597" width="87.795" height="64.792" transform="matrix(0.957, -0.289, 0.289, 0.957, 15.926, 74.566)" fill="#a7a7a7"/>
      <rect id="Rectangle_1598" data-name="Rectangle 1598" width="21.085" height="22.237" transform="matrix(0.957, -0.289, 0.289, 0.957, 41.428, 43.634)" fill="#759b5e"/>
      <rect id="Rectangle_1599" data-name="Rectangle 1599" width="18.934" height="64.792" transform="matrix(0.957, -0.289, 0.289, 0.957, 48.886, 64.611)" fill="#759b5e"/>
      <path id="Path_9740" data-name="Path 9740" d="M123.089,107c-31.926,9.643-45.944,5.668-45.944,5.668l84.049-25.384S155.021,97.36,123.089,107Z" transform="translate(-61.219 -38.105)" fill="#c8c6c6"/>
    </g>
    <g id="Group_5309" data-name="Group 5309" transform="translate(437.771 2217.587)">
      <path id="Path_9679" data-name="Path 9679" d="M83.177,188.736a1.6,1.6,0,0,1-1.272-.845,1.637,1.637,0,0,1-.117-.225c-.055-.125-5.505-12.817-11.363-29.84-5.416-15.74-12.3-38.525-14.358-57.69a1.932,1.932,0,0,1,.48-1.44c.941-1.024,2.114-2.3,83.548-1.125,37.032.533,74.239,1.368,79.677,1.491a11.284,11.284,0,0,1,.9-1.352c4.621-5.812,9.436-5.831,11.894-5.325a9.63,9.63,0,0,1,6.308,4.231c7.733.956,16.569,1.562,18.044.914a1.719,1.719,0,0,1,2.374.583,1.764,1.764,0,0,1-.594,2.409c-2.53,1.559-14.39.31-21.233-.572a1.756,1.756,0,0,1-1.458-1.27c-.206-.751-1.807-2.4-4.143-2.882-2.935-.6-5.862.808-8.464,4.081-4.253,5.35-13.286,39.453-19.264,62.02-6.384,24.1-6.746,24.9-7.829,25.566-.569.35-1.061.653-19.014,1.109-10.326.261-24.256.5-38.218.651-14.722.159-28.237.212-38.055.147C89.062,189.3,84.844,189.133,83.177,188.736ZM59.694,101.2c3.966,33.422,22.2,77.744,24.949,84.276,9.187.9,100.1.037,109.606-1.049,1.017-2.65,3.81-13.195,6.518-23.419,6.841-25.826,12.951-48.294,17.329-58.5C158.489,101.145,71.283,99.765,59.694,101.2ZM194.85,184.334Z" transform="translate(-56.059 -92.184)" fill="#fff"/>
      <path id="Path_9680" data-name="Path 9680" d="M84.621,222a1.743,1.743,0,0,1,.4-3.438c.905,0,90.679-.417,98.3-1.051.447-.038.868-.069,1.264-.1,3.332-.25,3.985-.394,4.745-1.631,1.14-1.856,2.147-6.095,3.976-13.79l.149-.628a1.742,1.742,0,0,1,3.389.806l-.149.627c-3.925,16.525-4.16,17.513-11.848,18.09q-.581.044-1.236.1c-7.753.645-94.865,1.046-98.57,1.064A1.775,1.775,0,0,1,84.621,222Z" transform="translate(-59.949 -107.596)" fill="#fff"/>
      <path id="Path_9681" data-name="Path 9681" d="M64.889,134.954a.871.871,0,0,1,.247-1.718c.869.045,87.592,4.465,147.518-.267a.871.871,0,0,1,.138,1.736c-60.041,4.741-146.876.315-147.746.271A.921.921,0,0,1,64.889,134.954Z" transform="translate(-57.225 -98.012)" fill="#fff"/>
      <path id="Path_9682" data-name="Path 9682" d="M75.5,171.6a.871.871,0,0,1,.217-1.718c.861.015,86.53,1.388,130.355-2.347a.871.871,0,0,1,.148,1.736c-43.914,3.743-129.671,2.367-130.532,2.353A.853.853,0,0,1,75.5,171.6Z" transform="translate(-58.742 -102.952)" fill="#fff"/>
      <path id="Path_9683" data-name="Path 9683" d="M82.726,189.62a.871.871,0,0,1,.221-1.718c.771.018,77.59,1.7,119.981-2.069a.871.871,0,0,1,.153,1.736c-42.486,3.775-119.4,2.093-120.173,2.076A.844.844,0,0,1,82.726,189.62Z" transform="translate(-59.774 -105.567)" fill="#fff"/>
      <path id="Path_9684" data-name="Path 9684" d="M69.53,152.193a.871.871,0,0,1,.233-1.718c.961.034,96.622,3.374,139.007-.391a.871.871,0,0,1,.154,1.735c-42.492,3.775-138.26.431-139.223.4A.949.949,0,0,1,69.53,152.193Z" transform="translate(-57.888 -100.458)" fill="#fff"/>
      <path id="Path_9685" data-name="Path 9685" d="M61.138,118.369a.871.871,0,0,1,.219-1.718c1.126.022,113.038,2.176,155.43-1.59a.871.871,0,0,1,.154,1.735c-42.486,3.775-154.492,1.619-155.618,1.6A.927.927,0,0,1,61.138,118.369Z" transform="translate(-56.689 -95.453)" fill="#fff"/>
      <path id="Path_9686" data-name="Path 9686" d="M193.087,188.963l-.015,0a.872.872,0,0,1-.627-1.06c8.933-34.955,19.636-86.118,19.743-86.631a.871.871,0,1,1,1.7.356c-.107.513-10.817,51.714-19.759,86.707A.872.872,0,0,1,193.087,188.963Z" transform="translate(-75.547 -93.383)" fill="#fff"/>
      <path id="Path_9687" data-name="Path 9687" d="M154.213,189.36a.871.871,0,0,1-.668-.829c-.422-19.537.615-87.487.626-88.171a.871.871,0,0,1,1.742.027c-.01.684-1.047,68.6-.627,88.107a.869.869,0,0,1-.852.889A.856.856,0,0,1,154.213,189.36Z" transform="translate(-69.977 -93.23)" fill="#fff"/>
      <path id="Path_9688" data-name="Path 9688" d="M118.878,190.208a.871.871,0,0,1-.65-.658c-6.771-30.475-17.966-88.244-18.078-88.824a.871.871,0,0,1,1.71-.331c.112.579,11.3,58.325,18.069,88.776a.871.871,0,0,1-1.051,1.037Z" transform="translate(-62.358 -93.256)" fill="#fff"/>
      <path id="Path_9689" data-name="Path 9689" d="M176.49,189.164a.872.872,0,0,1-.667-.9c1.61-27.674,8.236-86.888,8.3-87.483a.871.871,0,0,1,1.732.194c-.067.595-6.687,59.762-8.295,87.391a.871.871,0,0,1-.921.819A.8.8,0,0,1,176.49,189.164Z" transform="translate(-73.175 -93.302)" fill="#fff"/>
      <path id="Path_9690" data-name="Path 9690" d="M136.862,189.437a.871.871,0,0,1-.65-.658c-6.463-29.05-8.543-88.121-8.563-88.714a.871.871,0,0,1,1.742-.059c.021.591,2.094,59.5,8.522,88.395a.871.871,0,0,1-1.051,1.037Z" transform="translate(-66.29 -93.181)" fill="#fff"/>
      <path id="Path_9691" data-name="Path 9691" d="M101.6,189.442a.869.869,0,0,1-.616-.548c-11.438-31.132-24.451-88.22-24.58-88.792a.871.871,0,1,1,1.7-.386c.129.572,13.118,57.551,24.516,88.577a.872.872,0,0,1-1.018,1.148Z" transform="translate(-58.964 -93.163)" fill="#fff"/>
    </g>
    <g id="Group_5310" data-name="Group 5310" transform="translate(470.737 2330.135)">
      <ellipse id="Ellipse_112" data-name="Ellipse 112" cx="4.487" cy="4.487" rx="4.487" ry="4.487" transform="translate(0 1.066)" fill="#759b5e"/>
      <path id="Path_9692" data-name="Path 9692" d="M121.866,230.263a4.487,4.487,0,1,1-3.328-5.4A4.488,4.488,0,0,1,121.866,230.263Z" transform="translate(-97.165 -223.675)" fill="#759b5e"/>
      <path id="Path_9693" data-name="Path 9693" d="M184.633,229.027a4.487,4.487,0,1,1-3.327-5.4A4.486,4.486,0,0,1,184.633,229.027Z" transform="translate(-106.136 -223.499)" fill="#759b5e"/>
      <path id="Path_9694" data-name="Path 9694" d="M203.125,229.024a4.487,4.487,0,1,1-3.328-5.4A4.488,4.488,0,0,1,203.125,229.024Z" transform="translate(-108.778 -223.498)" fill="#759b5e"/>
      <path id="Path_9695" data-name="Path 9695" d="M115.608,230.423a1.5,1.5,0,0,1,.431-1.77c.633-.555-.317-1.453-.945-.9a2.768,2.768,0,0,0-.735,3.053c.307.777,1.561.4,1.25-.381Z" transform="translate(-97.331 -224.081)" fill="#ccc" style="mix-blend-mode: soft-light;isolation: isolate"/>
      <path id="Path_9696" data-name="Path 9696" d="M117.6,227.681a6.183,6.183,0,0,1,.951-.061c.84.012.794-1.294-.046-1.305a6.182,6.182,0,0,0-.951.06.673.673,0,0,0-.63.676.659.659,0,0,0,.676.63Z" transform="translate(-97.724 -223.901)" fill="#ccc" style="mix-blend-mode: soft-light;isolation: isolate"/>
      <path id="Path_9697" data-name="Path 9697" d="M97.372,230.976a2.429,2.429,0,0,1-.292-1.467.673.673,0,0,0-.484-.787.658.658,0,0,0-.787.485,3.924,3.924,0,0,0,.451,2.454c.405.74,1.516.051,1.112-.685Z" transform="translate(-94.701 -224.242)" fill="#ccc" style="mix-blend-mode: soft-light;isolation: isolate"/>
      <path id="Path_9698" data-name="Path 9698" d="M98.492,227.8a.726.726,0,0,1,.332-.388c.727-.427.04-1.538-.685-1.113a1.916,1.916,0,0,0-.793.872c-.339.765.8,1.4,1.146.629Z" transform="translate(-94.917 -223.885)" fill="#ccc" style="mix-blend-mode: soft-light;isolation: isolate"/>
      <path id="Path_9699" data-name="Path 9699" d="M178.974,230.075a1.453,1.453,0,0,1-.094-1.341c.343-.763-.8-1.4-1.145-.629a2.826,2.826,0,0,0,.127,2.655c.428.726,1.539.04,1.113-.685Z" transform="translate(-106.376 -224.107)" fill="#ccc" style="mix-blend-mode: soft-light;isolation: isolate"/>
      <path id="Path_9700" data-name="Path 9700" d="M180.126,227.006a3.674,3.674,0,0,1,.646-.437c.738-.406.051-1.517-.685-1.113a5.232,5.232,0,0,0-.906.647.659.659,0,0,0,.021.924.667.667,0,0,0,.924-.021Z" transform="translate(-106.596 -223.766)" fill="#ccc" style="mix-blend-mode: soft-light;isolation: isolate"/>
      <path id="Path_9701" data-name="Path 9701" d="M197.978,230.42a2.429,2.429,0,0,1-.668-2.247c.282-.791-.992-1.088-1.271-.3a3.552,3.552,0,0,0,.826,3.235c.489.68,1.6,0,1.112-.685Z" transform="translate(-109.011 -224.057)" fill="#ccc" style="mix-blend-mode: soft-light;isolation: isolate"/>
      <path id="Path_9702" data-name="Path 9702" d="M198.474,226.566a1.412,1.412,0,0,1,.65-.321c.817-.2.435-1.45-.381-1.25a2.757,2.757,0,0,0-1.214.669c-.624.567.326,1.465.945.9Z" transform="translate(-109.215 -223.709)" fill="#ccc" style="mix-blend-mode: soft-light;isolation: isolate"/>
    </g>
    <g id="Group_5311" data-name="Group 5311" transform="translate(617.597 2220.038)">
      <path id="Path_9703" data-name="Path 9703" d="M268.3,95.045c-2.088-.09-3.633,5.5-1.138,6.1a171.633,171.633,0,0,0,20.5,1.688c3.192-.173,4.569-6.084.961-6.941S270.28,95.131,268.3,95.045Z" transform="translate(-265.87 -95.044)" fill="#f5f5f8"/>
      <path id="Path_9704" data-name="Path 9704" d="M266.053,98.115c-.391,1.507-.189,3.157,1.1,3.464a171.633,171.633,0,0,0,20.5,1.688,3.28,3.28,0,0,0,2.691-2.132A220.16,220.16,0,0,1,266.053,98.115Z" transform="translate(-265.871 -95.483)" fill="#fff"/>
      <path id="Path_9705" data-name="Path 9705" d="M280.788,98.742l5.029.158c.84.027.792-1.28-.046-1.306l-5.029-.158c-.84-.027-.792,1.28.047,1.306Z" transform="translate(-267.909 -95.386)" fill="#8886bf" style="mix-blend-mode: soft-light;isolation: isolate"/>
      <path id="Path_9706" data-name="Path 9706" d="M289.2,99.116a5.309,5.309,0,0,1,1.532.1.654.654,0,0,0,.3-1.271,6.6,6.6,0,0,0-1.88-.135c-.836.063-.8,1.369.046,1.306Z" transform="translate(-269.111 -95.437)" fill="#8886bf" style="mix-blend-mode: soft-light;isolation: isolate"/>
    </g>
    <path id="Path_8425" data-name="Path 8425" d="M223.6,85.8c1.764.643,4.26,1.212,6.3.074,3.313-1.868,2.211-6.494,5.419-8.251,2.949-1.636,5.516,1.31,8.949.084,4.123-1.461,2.359-8.32,5.942-9.583,2.6-.909,4.806,1.857,8.224.524a6.71,6.71,0,0,0,2.718-2" transform="translate(357.768 2129.053)" fill="none"/>
    <path id="Path_8437" data-name="Path 8437" d="M56.735,83.3c.193-1.469.2-3.49-1.024-4.864-2.008-2.233-5.384-.59-7.289-2.76-1.768-1.991.063-4.475-1.472-6.91-1.833-2.926-6.816-.389-8.405-2.934-1.146-1.848.607-4.021-1.008-6.427a5.308,5.308,0,0,0-2.01-1.749" transform="translate(380.939 2132.273)" fill="none"/>
    <path id="Path_8437-2" data-name="Path 8437" d="M229.056,67.071a4.009,4.009,0,0,0,2.889-1.52c1.051-1.67-.593-3.507.436-5.1.941-1.474,2.839-.763,4.1-2.17,1.52-1.683-.977-4.376.346-5.837.962-1.056,2.648-.339,3.879-1.79a3.47,3.47,0,0,0,.745-1.584" transform="translate(356.988 2131.564)" fill="none"/>
  </g>
</svg>
