<svg xmlns="http://www.w3.org/2000/svg" width="80" height="80" viewBox="0 0 80 80">
  <g id="Group_5009" data-name="Group 5009" transform="translate(-144 -753)">
    <rect id="Rectangle_1576" data-name="Rectangle 1576" width="80" height="80" transform="translate(144 753)" fill="none"/>
    <g id="product-return" transform="translate(150.384 760.676)">
      <path id="Path_9351" data-name="Path 9351" d="M276.686,216.242v11.252h1.022V217.264h28.609V235.47h1.022V216.242Z" transform="translate(-258.308 -203.563)" fill="#4a555f"/>
      <path id="Path_9352" data-name="Path 9352" d="M328.064,252.224v4.747l-1.309-1.367-1.155,1.367-1.193-1.367-1.264,1.367v-4.747H312.666v10.341l9.894,5.153a5.84,5.84,0,0,1,2.818,7.109h3.936q.758-.3,1.486-.661l.1-.048,7.638-3.217V252.224Z" transform="translate(-291.898 -237.155)" fill="#2cc852"/>
      <path id="Path_9353" data-name="Path 9353" d="M30.734,216.242v7.738l1.765-1.673,1.214,1.214,1.168-1.214,1.8,1.645v-7.71H30.734Zm4.92,5.387-.819-.75L33.7,222.06l-1.18-1.181-.762.722v-4.337h3.9v4.365ZM67.59,234.81a4.726,4.726,0,0,0-6.178-2.422l-21.976,9.251a16.661,16.661,0,0,1-9.341,1.795q.18-.093.352-.2a4.644,4.644,0,0,0-.337-8.049l-15.75-8.2H0V228H14.11l15.528,8.085a3.628,3.628,0,0,1-2.528,6.743l-.189-.058q-.965-.407-1.912-.854l-12-5.705-.439.923,11.894,5.657.1.049,1.381.657a4.727,4.727,0,0,0,.894.32,17.37,17.37,0,0,0,13.016-1.253l21.946-9.237A3.722,3.722,0,0,1,64.89,240.1L39.317,252.52a19.358,19.358,0,0,1-16.138.361l-21.4-9.234H0v1.022H1.567l21.208,9.151a20.378,20.378,0,0,0,16.987-.378l25.576-12.418A4.716,4.716,0,0,0,67.59,234.81Z" transform="translate(0 -203.563)" fill="#4a555f"/>
      <path id="Path_9354" data-name="Path 9354" d="M65.571,417.812a2.554,2.554,0,0,0-2.326-1.488,2.505,2.505,0,0,0-.974.2l-21.895,9.215a19.121,19.121,0,0,1-8.6,2.1,18.381,18.381,0,0,1-5.236-.766,5.938,5.938,0,0,1-1.1-.4l-1.378-.656-.106-.05-11.571-5.5-.323-.153,1.464-3.078.352.167,11.644,5.538q.9.423,1.809.809l.112.034a2.4,2.4,0,0,0,.52.057,2.425,2.425,0,0,0,1.3-.384A2.388,2.388,0,0,0,30.4,421.4a2.426,2.426,0,0,0-1.311-2.157l-15.269-7.95H0v13.257H2.024l.323.14,21.3,9.192a18.165,18.165,0,0,0,15.144-.338l25.573-12.417A2.512,2.512,0,0,0,65.571,417.812Z" transform="translate(0 -385.653)" fill="#dfdfdf"/>
      <path id="Path_9355" data-name="Path 9355" d="M91.058,25.369A32.506,32.506,0,0,0,62.406,44.584l.935.415a31.314,31.314,0,0,1,58.147,2.25l.964-.34A32.231,32.231,0,0,0,91.058,25.369ZM82.994,88.743q.5.144,1,.272l.252-.991q-.488-.124-.972-.264Zm2.018.512q.507.111,1.02.207l.187-1.005q-.5-.092-.988-.2Zm-4-1.154q.488.176.984.337l.316-.973q-.479-.156-.953-.326Zm-1.933-.768q.477.208.96.4l.377-.95q-.468-.186-.929-.387ZM77.2,86.441q.462.238.932.461l.438-.924q-.455-.216-.9-.446Zm14.747,2.54q-.366,0-.73-.009L91.2,90q.376.008.754.009h.284l-.007-1.022Zm-4.89.653q.513.078,1.029.14l.122-1.015q-.5-.06-1-.136Zm2.062.247q.516.045,1.036.074l.056-1.021q-.5-.028-1-.071l-.089,1.019Zm-13.737-4.45q.446.268.9.52l.5-.894q-.44-.244-.871-.5Zm-8.4-8.891-.816.616q.313.414.639.818l.8-.642q-.316-.391-.619-.792ZM65.821,74.9l-.853.563q.286.433.586.857l.835-.59q-.29-.41-.567-.83Zm27.41,14.057.042,1.022q.518-.021,1.035-.058l-.073-1.02q-.5.036-1,.056ZM64.769,73.187l-.888.507q.257.451.529.893l.871-.535Q65.018,73.623,64.769,73.187ZM68.876,80.3q.363.371.739.73l.707-.738q-.363-.348-.715-.707l-.731.716Zm4.761,4.007q.428.3.865.576l.553-.86q-.423-.272-.837-.558Zm-1.672-1.234q.408.322.827.631l.607-.823q-.4-.3-.8-.61l-.634.8Zm-1.589-1.337q.386.347.784.681l.658-.782q-.385-.324-.759-.66l-.683.761ZM68.245,78.1l-.774.668q.339.393.691.776l.753-.692Q68.573,78.485,68.245,78.1Zm43.461,3.871.645.793q.4-.328.795-.668l-.671-.772Q112.1,81.658,111.705,81.975Zm-16.47,6.837.107,1.017q.516-.054,1.031-.124l-.138-1.013Q95.738,88.76,95.236,88.812Zm17.988-8.155.7.75q.381-.353.75-.717l-.718-.728Q113.593,80.315,113.224,80.657Zm4.01-4.5.825.6q.307-.419.6-.848l-.844-.577Q117.531,75.751,117.234,76.157Zm-2.579,3.087.742.7q.357-.376.7-.764l-.763-.68Q115,78.879,114.655,79.244Zm6.809-11.066q-.169.475-.353.944l.952.374q.19-.484.365-.975Zm-1.151,2.793.925.435q.221-.47.427-.949l-.939-.4q-.2.463-.414.919ZM118.37,74.5l.862.55q.28-.438.545-.885l-.879-.522Q118.641,74.072,118.37,74.5Zm1.028-1.731.9.493q.251-.455.487-.919l-.911-.465q-.229.449-.472.89Zm-3.4,4.977.785.655q.333-.4.653-.807l-.805-.63q-.31.4-.633.783Zm-14.852,9.873.3.977q.495-.152.985-.319l-.33-.968Q101.621,87.468,101.141,87.615Zm8.965-4.422.593.833q.423-.3.835-.616l-.62-.813q-.4.3-.809.6ZM97.229,88.539l.17,1.008q.512-.087,1.021-.19l-.2-1Q97.726,88.456,97.229,88.539Zm5.81-1.573.362.956q.484-.183.963-.382l-.392-.945Q103.509,86.789,103.039,86.966ZM99.2,88.14l.235,1q.505-.12,1.007-.255l-.267-.987Q99.691,88.024,99.2,88.14Zm9.233-3.835.539.869q.441-.273.873-.561l-.566-.851q-.418.278-.845.543ZM104.893,86.2l.423.931q.472-.214.937-.444l-.453-.917q-.45.222-.907.429Zm1.8-.888.483.9q.457-.244.906-.5l-.511-.886Q107.136,85.072,106.693,85.309Z" transform="translate(-58.261 -25.356)" fill="#4a555f"/>
      <path id="Path_9356" data-name="Path 9356" d="M114.451,286.12l-1.412,3.709-3.514-1.614-.427.929,4.508,2.069,1.8-4.731ZM54.4,314.539,53.144,319.3l.989.26.981-3.737,3.743,1.136.3-.979Z" transform="translate(-49.614 -268.799)" fill="#4a555f"/>
    </g>
  </g>
</svg>
