<?xml version="1.0" encoding="UTF-8" standalone="no"?>
<!-- Created with Inkscape (http://www.inkscape.org/) -->

<svg
   xmlns:dc="http://purl.org/dc/elements/1.1/"
   xmlns:cc="http://creativecommons.org/ns#"
   xmlns:rdf="http://www.w3.org/1999/02/22-rdf-syntax-ns#"
   xmlns:svg="http://www.w3.org/2000/svg"
   xmlns="http://www.w3.org/2000/svg"
   xmlns:sodipodi="http://sodipodi.sourceforge.net/DTD/sodipodi-0.dtd"
   xmlns:inkscape="http://www.inkscape.org/namespaces/inkscape"
   width="985.51703"
   height="137.78331"
   id="svg6373"
   version="1.1"
   inkscape:version="0.48.4 r9939"
   sodipodi:docname="Neues Dokument 10">
  <defs
     id="defs6375">
    <clipPath
       clipPathUnits="userSpaceOnUse"
       id="clipPath3011">
      <path
         inkscape:connector-curvature="0"
         d="m 36.937,744.004 132.413,0 0,18.509 -132.413,0 0,-18.509 z"
         id="path3013" />
    </clipPath>
  </defs>
  <sodipodi:namedview
     id="base"
     pagecolor="#ffffff"
     bordercolor="#666666"
     borderopacity="1.0"
     inkscape:pageopacity="0.0"
     inkscape:pageshadow="2"
     inkscape:zoom="0.35"
     inkscape:cx="515.61564"
     inkscape:cy="-33.787156"
     inkscape:document-units="px"
     inkscape:current-layer="layer1"
     showgrid="false"
     fit-margin-top="0"
     fit-margin-left="0"
     fit-margin-right="0"
     fit-margin-bottom="0"
     inkscape:window-width="505"
     inkscape:window-height="453"
     inkscape:window-x="78"
     inkscape:window-y="78"
     inkscape:window-maximized="0" />
  <metadata
     id="metadata6378">
    <rdf:RDF>
      <cc:Work
         rdf:about="">
        <dc:format>image/svg+xml</dc:format>
        <dc:type
           rdf:resource="http://purl.org/dc/dcmitype/StillImage" />
        <dc:title></dc:title>
      </cc:Work>
    </rdf:RDF>
  </metadata>
  <g
     inkscape:label="Ebene 1"
     inkscape:groupmode="layer"
     id="layer1"
     transform="translate(165.61564,-360.79172)">
    <g
       transform="matrix(7.4427174,0,0,-7.4427174,-440.52729,6035.9791)"
       id="g4706"
       style="fill:#1c4598;fill-opacity:1">
      <g
         style="fill:#1c4598;fill-opacity:1"
         transform="translate(141.3945,762.5077)"
         id="g2997">
        <path
           inkscape:connector-curvature="0"
           id="path2999"
           style="fill:#9f9f9f;fill-opacity:1;fill-rule:nonzero;stroke:none"
           d="M 0,0 -5.301,-8.435 -10.608,0 l -5.483,0 8.254,-12.666 0,-5.838 4.698,0 0,5.945 L 5.128,0 0,0 z" />
      </g>
      <g
         style="fill:#1c4598;fill-opacity:1"
         transform="translate(98.5371,762.5077)"
         id="g3001">
        <path
           inkscape:connector-curvature="0"
           id="path3003"
           style="fill:#9f9f9f;fill-opacity:1;fill-rule:nonzero;stroke:none"
           d="m 0,0 -10.061,-9.265 10.028,-9.239 6.266,0 L -3.794,-9.265 6.266,0 0,0 z" />
      </g>
      <path
         inkscape:connector-curvature="0"
         id="path3005"
         style="fill:#9f9f9f;fill-opacity:1;fill-rule:nonzero;stroke:none"
         d="m 58.21,762.507 4.701,0 0,-18.504 -4.701,0 0,18.504 z" />
      <g
         style="fill:#1c4598;fill-opacity:1"
         id="g3007">
        <g
           style="fill:#1c4598;fill-opacity:1"
           clip-path="url(#clipPath3011)"
           id="g3009">
          <g
             style="fill:#1c4598;fill-opacity:1"
             transform="translate(105.8896,743.9726)"
             id="g3015">
            <path
               inkscape:connector-curvature="0"
               id="path3017"
               style="fill:#9f9f9f;fill-opacity:1;fill-rule:nonzero;stroke:none"
               d="m 0,0 14.859,0 c 2.597,0 4.293,1.402 4.293,4.383 l 0,2.578 c 0,2.609 -1.36,4.383 -4.293,4.383 l -11.108,0 0,3.461 14.332,0 0,3.73 -14.64,0 c -2.647,0 -4.256,-1.478 -4.256,-4.383 l 0,-2.306 c 0,-2.526 1.464,-4.248 4.256,-4.248 l 11.147,0 0,-3.861 L 0,3.737 0,0" />
          </g>
          <g
             style="fill:#1c4598;fill-opacity:1"
             transform="translate(146.853,743.9726)"
             id="g3019">
            <path
               inkscape:connector-curvature="0"
               id="path3021"
               style="fill:#9f9f9f;fill-opacity:1;fill-rule:nonzero;stroke:none"
               d="m 0,0 15.67,0 c 2.596,0 4.295,1.402 4.295,4.383 l 0,2.578 c 0,2.609 -1.362,4.383 -4.295,4.383 l -11.11,0 0,3.461 14.331,0 0,3.73 -14.639,0 c -2.645,0 -4.255,-1.478 -4.255,-4.383 l 0,-2.306 c 0,-2.526 1.466,-4.248 4.255,-4.248 l 11.148,0 0,-3.861 L 0,3.737 0,0" />
          </g>
          <g
             style="fill:#1c4598;fill-opacity:1"
             transform="translate(36.9365,743.9726)"
             id="g3023">
            <path
               inkscape:connector-curvature="0"
               id="path3025"
               style="fill:#9f9f9f;fill-opacity:1;fill-rule:nonzero;stroke:none"
               d="m 0,0 18.412,0 0,3.737 -13.715,0 0,14.798 L 0,18.535 0,0 z" />
          </g>
          <g
             style="fill:#1c4598;fill-opacity:1"
             transform="translate(66.6138,743.9726)"
             id="g3027">
            <path
               inkscape:connector-curvature="0"
               id="path3029"
               style="fill:#9f9f9f;fill-opacity:1;fill-rule:nonzero;stroke:none"
               d="m 0,0 4.286,0 0,13.198 L 18.259,0 l 2.946,0 0,18.535 -4.29,0 0,-11.109 L 5.157,18.535 0,18.535 0,0 z" />
          </g>
        </g>
      </g>
      <g
         transform="translate(169.3506,762.5155)"
         id="g3031"
         style="fill:#1c4598;fill-opacity:1">
        <path
           inkscape:connector-curvature="0"
           id="path3033"
           style="fill:#9f9f9f;fill-opacity:1;fill-rule:nonzero;stroke:none"
           d="m 0,0 -0.247,0 -0.444,-0.963 -0.007,0 -0.434,0.963 -0.247,0 0,-1.285 0.196,0 0,0.926 0.011,0 0.413,-0.926 0.114,0 0.425,0.926 0.009,0 0,-0.926 0.211,0 L 0,0 z m -1.548,-0.193 -0.406,0 0,-1.092 -0.214,0 0,1.092 -0.401,0 0,0.193 1.021,0 0,-0.193 z" />
      </g>
    </g>
  </g>
</svg>
