<svg xmlns="http://www.w3.org/2000/svg" width="80" height="80" viewBox="0 0 80 80">
  <g id="Group_5007" data-name="Group 5007" transform="translate(-531 -753.222)">
    <rect id="Rectangle_1574" data-name="Rectangle 1574" width="80" height="80" transform="translate(531 753.222)" fill="none"/>
    <g id="Group_5002" data-name="Group 5002" transform="translate(542.231 756.623)">
      <g id="location-132" transform="translate(0 0)">
        <path id="Path_9365" data-name="Path 9365" d="M152.829,41.492l-.931-.565q.277-.455.533-.922l.954.525q-.268.487-.557.962Zm1.072-1.947-.975-.484q.236-.477.453-.964l.994.442q-.225.508-.472,1.006Zm.9-2.03-1.012-.4q.2-.5.373-1l1.027.36Q155.009,37,154.8,37.515Zm.735-2.095L154.5,35.1q.156-.51.293-1.026l1.052.279q-.142.536-.306,1.067Zm.57-2.144-1.062-.24q.118-.521.216-1.047l1.07.2Q156.23,32.736,156.108,33.277Zm.408-2.178-1.076-.163q.08-.529.141-1.06l1.082.124q-.063.551-.146,1.1Zm.253-2.2-1.085-.087q.043-.533.067-1.068l1.087.05q-.025.553-.07,1.105Zm.1-2.211-1.089-.013q0-.213,0-.427,0-.322-.007-.643l1.089-.025q.008.333.007.668Q156.875,26.468,156.872,26.688Zm-1.137-2.149q-.032-.533-.085-1.064l1.084-.107q.054.55.088,1.1Zm-.209-2.123q-.073-.529-.165-1.055l1.072-.189q.1.544.172,1.095Zm-.371-2.1q-.113-.522-.245-1.039L155.964,19q.138.537.255,1.079l-1.064.23Zm-.53-2.067q-.152-.511-.324-1.017l1.03-.351q.178.525.337,1.056Zm-.687-2.02q-.192-.5-.4-.99l1-.428q.218.51.417,1.027Zm-.84-1.962q-.229-.482-.476-.956l.965-.5q.256.491.494.992Zm-.988-1.893q-.265-.464-.548-.917l.924-.576q.293.471.568.952Zm-1.129-1.812q-.3-.442-.616-.873l.878-.644q.328.447.639.906Zm-1.263-1.722q-.187-.236-.379-.468-.149-.179-.3-.356l.827-.708q.157.183.311.369.2.241.395.487Zm-1.389-1.621q-.363-.392-.74-.771l.771-.769q.391.393.768.8ZM146.821,5.7q-.391-.364-.8-.712l.711-.825q.42.362.826.74l-.741.8ZM145.2,4.309q-.418-.333-.848-.651L145,2.783q.446.329.879.675Zm-1.718-1.268q-.442-.3-.894-.585l.578-.922q.47.295.928.607ZM127,63.051a.543.543,0,0,1-.375-.149L110.041,47.177q-.325-.307-.654-.611c-.37-.342-.752-.7-1.119-1.06a26.608,26.608,0,1,1,45.34-18.9,26.508,26.508,0,0,1-7.6,18.6h0c-.425.427-.855.837-1.333,1.29l-.009-.009c-.129.14-.351.351-.735.714L127.372,62.9a.543.543,0,0,1-.375.149Zm0-61.962a25.517,25.517,0,0,0-17.963,43.645c.354.351.729.7,1.092,1.035q.334.308.663.619L127,61.756l16.926-16.05c.472-.448.9-.852,1.312-1.269h0A25.5,25.5,0,0,0,127,1.089Z" transform="translate(-96.807)" fill="#4a555f"/>
        <path id="Path_9366" data-name="Path 9366" d="M158.69,36.7a21.589,21.589,0,0,0-15.2,36.926c.3.3.614.591.947.895l.6.562L158.69,88.03l14.293-13.554c.433-.41.792-.75,1.144-1.1A21.577,21.577,0,0,0,158.69,36.7Zm0,32.974a11.691,11.691,0,1,1,11.693-11.693A11.7,11.7,0,0,1,158.69,69.676Z" transform="translate(-128.368 -32.2)" fill="#dfdfdf"/>
        <path id="Path_9367" data-name="Path 9367" d="M153.065,720.434H100.932a.545.545,0,0,1-.5-.751l8.118-19.76a.544.544,0,0,1,.878-.188L127,716.38l17.55-16.645a.544.544,0,0,1,.878.188l8.142,19.76a.544.544,0,0,1-.5.752Zm-51.321-1.089h50.508l-7.53-18.275-17.349,16.454a.544.544,0,0,1-.749,0l-17.372-16.455Z" transform="translate(-96.808 -654.624)" fill="#4a555f"/>
        <path id="Path_9368" data-name="Path 9368" d="M527.406,749.743H506.491a.544.544,0,0,1-.375-.939l15.606-14.8a.544.544,0,0,1,.887.211l5.308,14.8a.544.544,0,0,1-.512.728Zm-19.55-1.089h18.776l-4.766-13.284Z" transform="translate(-476.302 -686.692)" fill="#4a555f"/>
        <path id="Path_9369" data-name="Path 9369" d="M585.384,802.761H599.16l-3.49-9.724Z" transform="translate(-550.634 -742.069)" fill="#2cc852"/>
        <path id="Path_9370" data-name="Path 9370" d="M201.975,247.792a11.861,11.861,0,1,1,11.861-11.861A11.875,11.875,0,0,1,201.975,247.792Zm0-22.634a10.773,10.773,0,1,0,10.773,10.773A10.785,10.785,0,0,0,201.975,225.158Zm0,47.561H181.058a.545.545,0,0,1-.512-.728l5.309-14.8a.545.545,0,0,1,.887-.211l15.606,14.8a.544.544,0,0,1-.374.939Zm-20.142-1.089h18.777L186.6,258.346Z" transform="translate(-171.785 -209.668)" fill="#4a555f"/>
        <path id="Path_9371" data-name="Path 9371" d="M232.6,793.037l-3.49,9.724h13.775Z" transform="translate(-217.256 -742.069)" fill="#2cc852"/>
        <path id="Path_9372" data-name="Path 9372" d="M294.439,825.246l3.131-9.944,1.038.327-3.131,9.944Z" transform="translate(-278.387 -762.904)" fill="#4a555f"/>
        <path id="Path_9373" data-name="Path 9373" d="M219.754,819.385h13.119v1.089H219.754Zm12.748,5.948.894-4.518,1.068.211-.894,4.517Zm16.158-9.669,1.038-.327,3.13,9.945-1.038.327Z" transform="translate(-208.503 -762.935)" fill="#4a555f"/>
        <path id="Path_9374" data-name="Path 9374" d="M80.7,396.765H93.816v1.089H80.7Zm-1.592,1.648,1.068-.211.894,4.517L80,402.931Zm-31.8-20.649q-.306-.481-.567-.988l.968-.5q.237.462.516.9Zm-1.043-2.016q-.217-.52-.4-1.055l1.031-.348c.114.34.239.671.369.983Zm-.721-2.129q-.146-.539-.263-1.086l1.065-.228q.111.518.249,1.03Zm-.47-2.18q-.091-.549-.158-1.1l1.08-.132c.043.347.093.7.152,1.055Zm-.271-2.205q-.046-.552-.073-1.106l1.087-.052c.017.344.039.7.07,1.068Zm-.107-2.213q-.008-.554,0-1.107l1.088.021q-.01.535,0,1.071Zm1.129-2.156-1.087-.058c.037-.692.083-1.1.085-1.118l1.081.123S45.857,364.211,45.822,364.867Z" transform="translate(-44.689 -340.316)" fill="#4a555f"/>
      </g>
      <circle id="Ellipse_108" data-name="Ellipse 108" cx="6.819" cy="6.819" r="6.819" transform="translate(23.264 19.133)" fill="#2cc852"/>
    </g>
  </g>
</svg>
