<svg xmlns="http://www.w3.org/2000/svg" width="159.47" height="68.021" viewBox="0 0 159.47 68.021">
  <g id="logo_2" data-name="logo 2" transform="translate(0 -1.8)">
    <path id="Path_14600" data-name="Path 14600" d="M30.15,33.91V25.06S12.67,16.5,3.62,28.43C-5.12,40,3.41,57,14,57.71c11.14.78,16.11-1.06,16.11-1.06v-18H15v6.42h6.88V51S8.67,53.81,8,41,19.41,28,23.2,29.48a25.1,25.1,0,0,1,6.95,4.43Z" fill="#38b64a"/>
    <path id="Path_14601" data-name="Path 14601" d="M56.69,42.54s7.69-3.16,6.42-11.79-11.58-7.9-11.58-7.9h-15V57.71h8.84V44.65h2.64L57.8,57.71H68.59Zm-6.63-4.1c-1.69-.11-4.74,0-4.74,0V29.38h4.53c2.42,0,4.63,1.26,4.52,4.53a4.35,4.35,0,0,1-4.31,4.53Z" fill="#38b64a"/>
    <path id="Path_14602" data-name="Path 14602" d="M137.67,57.71h-7.74V22.83h10.42l10.74,19.19V22.83h8.38V57.71h-9.16l-12.32-23.8Z" fill="#38b64a"/>
    <path id="Path_14603" data-name="Path 14603" d="M64.76,23.78,76.87,57.71h39.18l11.37-33.93Zm50.5,25.71H76.93V43.28h38.33Zm-43.44-13V30.33h48.54v6.21Z" fill="#211f20"/>
    <path id="Path_14604" data-name="Path 14604" d="M96.09,49.49H76.93V43.28H96.09V36.54H71.82V30.33H96.09V23.78H64.76L76.87,57.71H96.09Z" fill="#38b64a"/>
    <path id="Path_14605" data-name="Path 14605" d="M83.14,69.82a5.45,5.45,0,1,1,5.45-5.45A5.45,5.45,0,0,1,83.14,69.82Zm0-9.32A3.87,3.87,0,1,0,87,64.37a3.87,3.87,0,0,0-3.86-3.87Z" fill="#38b64a"/>
    <circle id="Ellipse_113" data-name="Ellipse 113" cx="1.86" cy="1.86" r="1.86" transform="translate(81.28 62.51)" fill="#38b64a"/>
    <path id="Path_14606" data-name="Path 14606" d="M109,69.82a5.45,5.45,0,1,1,5.45-5.45A5.45,5.45,0,0,1,109,69.82Zm0-9.32a3.87,3.87,0,1,0,3.87,3.87A3.87,3.87,0,0,0,109,60.5Z" fill="#38b64a"/>
    <circle id="Ellipse_114" data-name="Ellipse 114" cx="1.86" cy="1.86" r="1.86" transform="translate(107.18 62.51)" fill="#38b64a"/>
    <path id="Path_14607" data-name="Path 14607" d="M81,13.27s2.47-.53,2.37-4.64S81.06,5,76.62,5h-7V23.78H79a5.58,5.58,0,0,0,5.7-5.88C84.71,13.27,81,13.27,81,13.27ZM74.1,8.42s4.42-.73,4.32,2.06-4.32,2-4.32,2Zm0,11.9V15.48s6.1-.74,6.05,2.42-6.08,2.42-6.08,2.42Z" fill="#211f20"/>
    <path id="Path_14608" data-name="Path 14608" d="M99,5.5v12h0c-.16,1.37-1.84,2.5-3.91,2.5s-3.76-1.08-3.92-2.45h0V5.5h-4V19.41h.06c.34,2.45,3.71,4.37,7.86,4.37s7.51-1.92,7.85-4.37H103V5.5Z" fill="#211f20"/>
    <path id="Path_14609" data-name="Path 14609" d="M90.88,5.78l-.01-3.82H87.48V5.5h-.16V1.8h3.71V5.78Z" fill="#211f20"/>
    <rect id="Rectangle_1635" data-name="Rectangle 1635" width="0.79" height="0.79" transform="translate(87.96 3.35)" fill="#211f20"/>
    <rect id="Rectangle_1636" data-name="Rectangle 1636" width="0.79" height="0.79" transform="translate(89.61 3.35)" fill="#211f20"/>
    <path id="Path_14610" data-name="Path 14610" d="M102.75,5.78V1.96h-3.4V5.5h-.16V1.8h3.71l.01,3.98Z" fill="#211f20"/>
    <rect id="Rectangle_1637" data-name="Rectangle 1637" width="3.55" height="0.16" transform="translate(99.27 2.96)" fill="#211f20"/>
    <path id="Path_14611" data-name="Path 14611" d="M116.02,23.78h-4.58V16.36l-6.63-11.3h5.09l3.87,6.64,3.71-6.64h5.06v.28l-6.6,11.06Z" fill="#211f20"/>
    <rect id="Rectangle_1638" data-name="Rectangle 1638" width="75.43" height="0.79" transform="translate(0 63.97)" fill="#aaa"/>
    <rect id="Rectangle_1639" data-name="Rectangle 1639" width="43.28" height="0.79" transform="translate(116.19 64.37)" fill="#aaa"/>
  </g>
</svg>
