<svg xmlns="http://www.w3.org/2000/svg" width="136.368" height="34.958" viewBox="0 0 136.368 34.958"><path d="M18.45,34.5c-.606-.443-.593-.559.6-5.273a60.7,60.7,0,0,0,1.376-6.692l.155-1.872-1.6,3.1c-2.85,5.529-4.949,8.214-7.665,9.806a10.381,10.381,0,0,1-6.968.742C.044,33.114-1.493,27.352,1.705,24.4c1.926-1.775,7.435-1.064,6.818.88-.2.641-.37.692-1.626.5-1.224-.184-1.5-.107-2.221.612a2.658,2.658,0,0,0-.822,2.253,2.287,2.287,0,0,0,.988,2.263c1.7,1.434,4.323.964,6.432-1.156,1.457-1.464,3.965-6.074,7.177-13.19C21.787,9.176,23.8,5.185,25.54,2.481,27.121.03,27.372-.178,28.434.089c1.2.3,1.266,1.385.216,3.73a46.223,46.223,0,0,0-3.779,13.8l-.217,2.409,3.139-4.5A86.1,86.1,0,0,1,37.7,3.245C40,.87,40.765.275,41.5.275c1.15,0,1.494.793.824,1.9-.276.456-1.9,3.141-3.617,5.967-6.352,10.475-9.227,18.165-8.208,21.95.439,1.629,1.177,1.89,2.975,1.051a7.816,7.816,0,0,0,4.112-4.232c2.119-4.2,6.322-7.369,9.766-7.369a5.121,5.121,0,0,1,2.285.45c.55.385.73.385,1.257,0a2.31,2.31,0,0,1,2.73.02c.317.382.058,1.12-1.381,3.934-.974,1.905-2.106,4.068-2.514,4.806s-.644,1.441-.523,1.562c.735.735,4.055-2.8,7.435-7.905,1.168-1.767,1.177-1.8.694-2.96a8.851,8.851,0,0,1,0-5.7,3.938,3.938,0,0,1,3.054-1.916A3.111,3.111,0,0,1,62,12.775a2.729,2.729,0,0,1,.939,2.421,6.9,6.9,0,0,1-.642,2.742c-.846,1.657-.827,1.72.447,1.513,1.319-.214,2.443.466,2.443,1.478a13.277,13.277,0,0,1-2.276,3.595c-4.25,5.393-4.937,8.1-1.713,6.752,2.1-.878,3.165-1.925,8.165-8.04C73.01,18.781,74.4,17.3,74.935,17.3c.821,0,2.138.834,2.138,1.354a9.172,9.172,0,0,1-1.336,2.124L74.4,22.544l.426,1.47a19.462,19.462,0,0,1,.566,2.835,3.293,3.293,0,0,0,.3,1.365,17.533,17.533,0,0,0,2.006-1.3,6.443,6.443,0,0,0,2.674-3.131c3.6-8,6.454-14.154,6.847-14.76a2.2,2.2,0,0,1,3.023-.241c.426.514.419.534-3.008,8.6l-1.47,3.46,1.384-.811c1.518-.89,2.7-1.029,3.473-.41a4.368,4.368,0,0,1,1.007,3.548,30.821,30.821,0,0,1-3.156,6.568c-.5.815-.681,1.365-.45,1.365.867,0,3.133-2.3,3.989-4.051a19.576,19.576,0,0,1,6.74-6.892c2.028-.984,4.6-1.064,5.58-.174.582.527.694.541.86.109.4-1.055,3.355-.884,3.355.194a39.418,39.418,0,0,1-2.248,4.782,29.275,29.275,0,0,0-2.248,5.034c0,1.228.881,1.126,2.582-.3,1.307-1.094,1.933-2,3.189-4.609,3.126-6.5,7.872-12.478,12.208-15.391,2.525-1.7,4.821-1.52,4.821.37,0,1-2.08,5.487-3.507,7.562A34.08,34.08,0,0,1,115.588,25c-3.331,2.287-3.458,2.431-3.7,4.214-.238,1.739.584,2.749,1.957,2.4,1.432-.359,4.374-3.711,6.252-7.121a52.357,52.357,0,0,1,5.743-8.918c2.141-2.643,6.71-6.49,8.058-6.786,1.315-.289,2.231.053,2.447.915.227.9-1.045,4.444-2.466,6.865-1.336,2.277-5.754,6.71-9.046,9.075-2.585,1.858-3.13,2.806-2.668,4.645.6,2.374,3.337,1.382,6.341-2.294,1.745-2.136,2.018-2.35,2.446-1.923.694.694.334,1.653-1.57,4.175-1.8,2.388-4.259,4.226-6.089,4.554A4.571,4.571,0,0,1,118.4,31.6c-.058-.171-.6.157-1.206.728a9.922,9.922,0,0,1-5.524,2.634,2.655,2.655,0,0,1-2.185-.939,3.11,3.11,0,0,1-.939-1.606c0-.367-.078-.667-.174-.667a13.445,13.445,0,0,0-1.847,1.262c-2.825,2.132-4.3,2.3-5.65.63l-.541-.668-1.113.655a11.008,11.008,0,0,1-2.643,1,4.168,4.168,0,0,1-4.365-1.365l-.757-.821-1.275.924c-1.947,1.41-3.229,1.742-4.4,1.138a3.267,3.267,0,0,1-1.958-2.741,21.217,21.217,0,0,1,1.927-4.484c1.056-2.02,1.919-3.79,1.919-3.934,0-.617-.919-.151-2.545,1.288-1.509,1.336-1.985,2.077-3.553,5.535-2.07,4.566-2.846,5.348-4.419,4.46-.921-.52-1.14-1.682-.564-3,.174-.4-.532-.046-2.06,1.026-3.847,2.7-6.945,2.922-9.072.646l-.858-.919L62.889,33.4a7.543,7.543,0,0,1-3.545,1.168c-1.7.134-1.9.075-2.81-.832a2.7,2.7,0,0,1-.976-2.082c0-1.542,1.9-5.172,3.843-7.351,1.019-1.142,1.5-1.906,1.273-2.043-.431-.267-.276-.443-3.344,3.812-3.384,4.694-5.33,6.755-7.306,7.74-2.007,1-3.34,1.05-4.287.16l-.709-.666-1.306.666a6.035,6.035,0,0,1-5.437.021,3.582,3.582,0,0,1-1.236-1.116c-.147-.382-.442-.294-1.529.453-2.287,1.573-5.063,1.943-7.016.935-1.493-.771-2.046-4.09-1.435-8.619l.238-1.766-1,1.766c-2.786,4.9-6.112,9.313-7.016,9.313A2.519,2.519,0,0,1,18.45,34.5Zm52.376-2.9c.64-.64.787-1.108.784-2.489-.005-1.969-.279-3.212-.677-3.079a13.82,13.82,0,0,0-3.172,4.2c0,.631,1.363,2.155,1.927,2.155A2.791,2.791,0,0,0,70.826,31.6Zm28.313-1.615c2.669-2.284,4.572-7.876,2.767-8.133-2.372-.338-6.858,4.759-6.947,7.892C94.9,32,96.664,32.1,99.139,29.986ZM43.724,30.5a10.433,10.433,0,0,0,4.336-6.935c.218-1.592-.186-2.01-1.6-1.655-2.942.738-7.355,7.4-5.992,9.038C41.066,31.669,42.106,31.526,43.724,30.5Zm74.385-10.877c2.295-2.259,5.651-7.145,4.907-7.145a21.174,21.174,0,0,0-2.807,2.681c-2.434,2.571-5.536,6.954-4.922,6.954A19.183,19.183,0,0,0,118.109,19.624Zm10.493-.562c1.582-1.455,4.765-6.583,4.085-6.583-.929,0-7.443,8.245-7.443,9.421,0,.191.677-.3,1.5-1.085S128.41,19.238,128.6,19.062Zm-68.265-2.44c.311-.892.046-2.216-.445-2.216-.409,0-.818,1.45-.638,2.267C59.522,17.889,59.9,17.871,60.337,16.621Z" fill="#9f9f9f"/></svg>