<svg xmlns="http://www.w3.org/2000/svg" width="58.194" height="17.898" viewBox="0 0 58.194 17.898">
  <g id="_10692_orig_1_" data-name="10692_orig (1)" transform="translate(-622.046 56)">
    <g id="Layer_1_1_" transform="translate(622.046 -56)">
      <g id="XMLID_225_" transform="translate(16.509 2.637)">
        <g id="XMLID_162_" transform="translate(0 0)">
          <path id="XMLID_163_" d="M1247.157,45.908a3.1,3.1,0,0,0-.359-.013,2.539,2.539,0,0,0-2.152,1.531h-.043c.056-.469.085-.924.122-1.38h-1.72c-.069.581-.152,1.71-.36,2.73l-.746,4.016h1.974l.482-2.512c.25-1.324.842-2.456,2.1-2.456a1.714,1.714,0,0,1,.317.029Zm-.687,4.693a2.084,2.084,0,0,0,2.04,2.346,2.538,2.538,0,0,0,2.261-1.491h.043c-.043.482-.085.953-.1,1.337h1.822a17.687,17.687,0,0,1,.274-3.036l.716-3.532a8.084,8.084,0,0,0-2.234-.33A4.556,4.556,0,0,0,1246.47,50.6Zm4.509-1.587c-.33,1.643-1.033,2.333-1.627,2.333-.551,0-.826-.453-.826-1.119,0-1.257.94-2.829,2.221-2.829a2.116,2.116,0,0,1,.551.056ZM1259.3,43l-.581,3.063a2.8,2.8,0,0,0-.924-.165,4.323,4.323,0,0,0-4.235,4.509c0,1.627.924,2.541,2.083,2.541a2.58,2.58,0,0,0,2.205-1.241h.029l-.1,1.089h1.822a18.569,18.569,0,0,1,.317-2.621L1261.289,43Zm-1.215,6.456c-.264,1.284-.967,1.888-1.545,1.888s-.924-.453-.924-1.27c0-1.3.842-2.663,2.027-2.663a1.342,1.342,0,0,1,.788.221Zm6.054,1.888a1.26,1.26,0,0,1-1.324-1.406,2.344,2.344,0,0,1,2.277-2.456,2.124,2.124,0,0,1,.924.178l.482-1.531a3.842,3.842,0,0,0-1.366-.234,4.233,4.233,0,0,0-4.4,4.277,2.625,2.625,0,0,0,2.842,2.773,4.676,4.676,0,0,0,1.918-.36l-.013-1.531A3.2,3.2,0,0,1,1264.139,51.344Zm5.907-5.449A4.067,4.067,0,0,0,1266,50.159a2.674,2.674,0,0,0,2.871,2.786,4.027,4.027,0,0,0,4.027-4.277A2.675,2.675,0,0,0,1270.047,45.9Zm-.9,5.535c-.677,0-1.076-.525-1.076-1.324-.013-1.033.567-2.69,1.71-2.69.8,0,1.063.647,1.063,1.284C1270.845,49.829,1270.238,51.43,1269.149,51.43Zm12.8-5.535a2.794,2.794,0,0,0-2.333,1.27,1.45,1.45,0,0,0-1.6-1.27,2.75,2.75,0,0,0-2.3,1.241h-.029l.123-1.089h-1.71c-.085.607-.178,1.337-.359,2.195l-.826,4.552h1.931l.538-3.036c.25-1.337.953-2.277,1.627-2.277.482,0,.634.373.634.826a4.082,4.082,0,0,1-.1.772l-.69,3.71h1.9l.581-3.05c.25-1.366.911-2.261,1.587-2.261.453,0,.647.33.647.8a5.569,5.569,0,0,1-.085.826l-.677,3.683h1.931l.716-3.918a7.488,7.488,0,0,0,.123-1.172A1.571,1.571,0,0,0,1281.952,45.9Z" transform="translate(-1241.9 -43)" fill="#333"/>
        </g>
      </g>
      <g id="Group_4998" data-name="Group 4998">
        <g id="Group_4997" data-name="Group 4997">
          <path id="Path_9325" data-name="Path 9325" d="M632.288-56c-.439,1.681-3.763,1.254-5.319,1.838-3.084,1.156-6.176,5.194-4.405,9.6a5.274,5.274,0,0,0,1.515,2.312,1.529,1.529,0,0,0,1.9-.28,5.688,5.688,0,0,0,2.136-3.71c.309-1.992-1.225-3.076-2.706-1.95-.264-.455-.525-.911-.788-1.369C627.483-49.547,633.849-52.554,632.288-56Zm-4.248,4.914c-1.028.591-2.482-1.614-1.068-2.053C627.923-53.158,628.993-51.635,628.04-51.086Z" transform="translate(-622.046 56)" fill="#333"/>
        </g>
      </g>
    </g>
    <g id="Layer_2" transform="translate(625.552 -52.207)">
      <path id="Path_9326" data-name="Path 9326" d="M760.945,86.4c2.677-.019,3.207,3.966,2.469,6.44a7.6,7.6,0,0,1-4.767,5.039c-1.382.543-4.392.964-4.512,2.626-.091-.218-.179-.442-.269-.663a2.941,2.941,0,0,1,.466-2.77c1.172-1.643,4.2-4.363,7.093-3.172-.077-.53-.152-1.057-.229-1.587a.065.065,0,0,1-.019-.011,2.49,2.49,0,0,1-3.308-3A3.816,3.816,0,0,1,760.945,86.4Z" transform="translate(-753.701 -86.398)" fill="#333"/>
    </g>
  </g>
</svg>
