<svg xmlns="http://www.w3.org/2000/svg" width="80" height="80" viewBox="0 0 80 80">
  <g id="Group_5006" data-name="Group 5006" transform="translate(-751 -753.28)">
    <rect id="Rectangle_1573" data-name="Rectangle 1573" width="80" height="80" transform="translate(751 753.28)" fill="none"/>
    <g id="Group_5005" data-name="Group 5005" transform="translate(760.04 756.846)">
      <g id="money-back-guarantee-1" transform="translate(0)">
        <path id="Path_9375" data-name="Path 9375" d="M145.6,4.138a29.113,29.113,0,1,0,10.024,39.928A29.071,29.071,0,0,0,145.6,4.138Zm9.13,39.394A28.069,28.069,0,0,1,106.567,14.7a28.069,28.069,0,0,1,48.166,28.835Z" transform="translate(-99.943 0)" fill="#4a555f"/>
        <path id="Path_9376" data-name="Path 9376" d="M87.962,61.941l-.914-.5q-.254.466-.488.943l.934.459Q87.718,62.389,87.962,61.941Zm-1.646,3.723-.984-.34q-.173.5-.326,1.01l1,.3Q86.149,66.148,86.316,65.665Zm3.818,23.167-.823.637q.325.42.669.827l.8-.671Q90.447,89.235,90.134,88.831Zm2.824-33.3-.7-.766q-.391.36-.768.735l.735.737q.361-.361.737-.706Zm-1.444,1.442-.766-.7q-.36.391-.7.8l.794.673Q91.168,57.353,91.514,56.977ZM85.308,69.61l-1.026-.174q-.089.524-.155,1.051l1.033.13Q85.223,70.113,85.308,69.61Zm4.887-11.077-.822-.638q-.326.419-.634.85l.847.606q.3-.415.61-.818Zm-2.138,2.275.365.312.051-.071q.26-.434.536-.857l-.872-.569q-.288.44-.558.892h0l-.019.029ZM85.73,67.616l-1.008-.258q-.131.515-.242,1.034l1.019.216q.106-.5.232-.993Zm1.295,15.962-.954.416q.212.487.444.965l.937-.454Q87.228,84.046,87.024,83.578Zm-.735-1.9-.986.334q.171.5.363,1l.971-.376q-.184-.475-.348-.958Zm1.625,3.735L87,85.906q.252.468.522.926l.9-.53Q88.156,85.863,87.915,85.413Zm1.038,1.755-.873.568q.29.446.6.879l.849-.6q-.3-.416-.574-.844Zm-3.9-15.537-1.038-.087q-.044.529-.067,1.06l1.04.044Q85.01,72.14,85.053,71.631Zm-.087,2.036-1.041.027q0,.518.021,1.034l1.04-.042C84.973,74.357,84.966,74.026,84.966,73.667Zm.082,2.037-1.038.085q.044.529.108,1.056l1.034-.127Q85.089,76.212,85.048,75.7Zm.249,2.023-1.027.17q.086.524.194,1.044l1.019-.212Q85.38,78.229,85.3,77.726Zm.415,2-1.01.253q.129.515.28,1.025l1-.295Q85.836,80.216,85.712,79.722Zm1.35-15.952-.952-.422q-.215.486-.41.98l.968.382Q86.856,64.236,87.062,63.77Zm45.18.08.954-.416q-.212-.487-.444-.966l-.937.455Q132.038,63.382,132.241,63.85ZM97.935,52l-.493-.917q-.468.252-.925.522l.53.9Q97.486,52.242,97.935,52Zm35.042,13.751.985-.335q-.171-.5-.363-1l-.971.376Q132.813,65.268,132.977,65.751Zm-2.666-5.49.873-.567q-.29-.446-.6-.88l-.849.6Q130.033,59.833,130.311,60.26Zm1.039,1.755.917-.492q-.252-.469-.523-.926l-.9.531Q131.109,61.566,131.351,62.015Zm2.2,5.691,1.01-.254q-.13-.515-.28-1.025l-1,.295Q133.431,67.211,133.555,67.706Zm.665,4.018,1.038-.085q-.044-.529-.109-1.056l-1.033.127Q134.178,71.216,134.22,71.724Zm.082,2.036,1.041-.019q0-.522-.021-1.043l-1.04.042C134.3,73.074,134.3,73.408,134.3,73.761ZM133.97,69.7l1.027-.17q-.086-.524-.195-1.045l-1.019.213Q133.887,69.2,133.97,69.7Zm-4.841-11.1.823-.637q-.326-.421-.669-.827l-.8.672Q128.818,58.2,129.129,58.6Zm-11.105-9.183q-.5-.174-1.011-.327l-.3,1q.487.146.969.313Zm3.88,1.715q-.466-.254-.942-.488l-.459.934q.457.225.9.469ZM115.989,48.8q-.515-.131-1.034-.241l-.215,1.018q.5.105.992.232Zm-2.078-.44q-.524-.088-1.051-.155l-.13,1.033q.5.064,1.008.148Zm9.816,3.855q-.44-.288-.891-.558l-.011-.007-.521.9q.432.259.853.534Zm4.853,4.116q-.36-.392-.736-.769l-.737.735q.36.361.706.737Zm-1.5-1.505q-.391-.361-.8-.705l-.673.794q.389.33.764.676Zm-1.621-1.375q-.419-.326-.852-.635l-.605.847q.416.3.817.61ZM120,50.192q-.485-.215-.979-.409l-.382.969q.473.186.94.392Zm3.082,44.21.567.873q.446-.29.879-.6l-.6-.849Q123.509,94.124,123.081,94.4ZM111.8,48.1q-.529-.045-1.06-.067l-.044,1.04q.509.021,1.017.064Zm9.522,47.342.493.917q.468-.252.925-.522l-.53-.9q-.439.26-.889.5Zm3.42-2.219.637.823q.421-.326.827-.669l-.671-.8Q125.149,92.909,124.745,93.221Zm-5.254,3.109.415.955q.486-.212.965-.444l-.455-.937Q119.959,96.127,119.491,96.33Zm-5.853,1.726.17,1.027q.524-.087,1.044-.195l-.212-1.019Q114.141,97.973,113.638,98.056Zm3.951-.991.336.985q.5-.172,1-.363l-.375-.971q-.476.184-.959.348Zm-5.973,1.24.085,1.038q.53-.043,1.056-.108L112.63,98.2Q112.124,98.264,111.616,98.305Zm4.018-.663.253,1.009q.515-.129,1.024-.279l-.294-1q-.489.145-.984.269Zm10.67-5.736.7.767q.392-.36.769-.735l-.735-.737Q126.68,91.561,126.3,91.906Zm1.445-1.441.766.7q.36-.391.7-.8l-.794-.673Q128.1,90.089,127.749,90.465Zm5.206-8.7.984.34q.173-.5.326-1.011l-1-.3Q133.122,81.281,132.956,81.763Zm.585-1.952,1.008.259q.132-.515.242-1.035l-1.019-.215q-.1.5-.231.992Zm.676-4.015,1.038.087q.044-.53.067-1.06l-1.04-.044Q134.259,75.288,134.217,75.8Zm-.255,2.022,1.027.173q.088-.525.155-1.051l-1.033-.13q-.063.506-.148,1.009ZM130.8,86.388q-.262.437-.541.864l.871.57q.292-.447.567-.9l-.441-.277-.455-.252Zm1.413-2.729.952.421q.215-.486.409-.98l-.969-.381Q132.416,83.192,132.21,83.658Zm-3.141,5.251.822.639q.326-.419.635-.851l-.847-.606Q129.382,88.507,129.069,88.91Zm2.242-3.423.914.5q.255-.469.488-.943l-.934-.459Q131.554,85.039,131.31,85.487ZM90.683,91.095q.36.392.735.769l.737-.735q-.36-.361-.706-.737ZM97.357,96.3q.466.254.942.489l.46-.934q-.457-.225-.9-.469Zm3.979-46.914q-.5.171-1,.363l.376.971q.475-.184.958-.348Zm-1.981.767q-.487.212-.965.444l.455.937q.459-.223.926-.426Zm-.093,47.085q.486.215.98.41l.381-.968q-.474-.187-.94-.393Zm-3.157-2.9-.571.871q.442.29.9.561l0,0,.036.026.239-.478.358-.358-.1-.079q-.436-.261-.86-.539ZM93.879,53.4q-.42.326-.827.669l.672.8q.39-.329.793-.642ZM92.185,92.6q.391.361.8.705l.673-.794q-.389-.33-.764-.677Zm3.428-40.435q-.446.29-.879.6l.6.849q.417-.3.844-.573Zm13.966,46.221.032,1.041q.515,0,1.03-.021l-.041-1.04C110.27,98.38,109.941,98.387,109.579,98.387Zm-15.772-4.41q.419.326.851.635l.606-.847q-.415-.3-.817-.61Zm13.649,5.36q.53.045,1.06.067l.044-1.04q-.508-.022-1.017-.065l-.087,1.037Zm-6.219-1.318q.5.175,1.01.327l.3-1q-.488-.147-.97-.314l-.341.983Zm6.323-49.925q-.53.043-1.056.108l.127,1.033q.505-.063,1.014-.1Zm2.1-.086c-.335-.006-.693.007-1.039.021l.042,1.04q.51-.022,1.02-.02Zm-4.31,51.063q.525.088,1.051.155l.13-1.033q-.5-.064-1.008-.148l-.173,1.027Zm-1.977-50.285q-.515.129-1.024.28l.295,1q.489-.144.983-.269Zm-.1,49.844q.515.132,1.034.242l.216-1.018q-.5-.106-.992-.232Zm2.181-50.277q-.524.087-1.044.195l.212,1.019q.5-.1,1-.187Zm-2.942,52.52a28.24,28.24,0,0,1-13.446-8.05l-.472-.508-9.664,16.142,11.188-2.137,3.4,10.871,9.664-16.142Zm-8.693,13.79-2.984-9.539L81.014,107l7.763-12.967a29.308,29.308,0,0,0,12.8,7.664Z" transform="translate(-78.928 -44.604)" fill="#4a555f"/>
        <path id="Path_9377" data-name="Path 9377" d="M156.006,730.691a30.573,30.573,0,0,1-4.95-3.687l-5.4,9.013,8.082-1.544,2.456,7.853,5.4-9.013A30.572,30.572,0,0,1,156.006,730.691Z" transform="translate(-140.93 -675.469)" fill="#dfdfdf"/>
        <path id="Path_9378" data-name="Path 9378" d="M617.528,673.078l-.472.508a28.234,28.234,0,0,1-13.446,8.05l-.671.176,9.664,16.142,3.4-10.871,11.188,2.137Zm-2.24,12.808-2.984,9.54-7.763-12.967a29.3,29.3,0,0,0,12.8-7.664l7.763,12.967Z" transform="translate(-565.795 -625.366)" fill="#4a555f"/>
        <path id="Path_9379" data-name="Path 9379" d="M664.094,727a30.7,30.7,0,0,1-10.538,6.309l5.4,9.013,2.456-7.853,8.082,1.544Z" transform="translate(-612.823 -675.469)" fill="#dfdfdf"/>
        <path id="Path_9382" data-name="Path 9382" d="M217.3,96.01a22.465,22.465,0,1,0,22.469,22.465A22.467,22.467,0,0,0,217.3,96.01Zm0,37.077a14.61,14.61,0,1,1,14.612-14.612A14.61,14.61,0,0,1,217.3,133.087Z" transform="translate(-186.622 -89.204)" fill="#2cc852"/>
        <path id="Path_9384" data-name="Path 9384" d="M283.08,140.3a18.808,18.808,0,0,0-5.74-13.172l-.725.747a17.878,17.878,0,1,1-23.969-.843l-.671-.8a18.92,18.92,0,0,0,12.179,33.39c.139,0,.279,0,.418,0A18.92,18.92,0,0,0,283.08,140.3Z" transform="translate(-233.455 -111.311)" fill="#4a555f"/>
        <path id="Path_9385" data-name="Path 9385" d="M682.062,217.836l-.055,3.72,1.041.015.039-2.624,2.877.191.069-1.039Z" transform="translate(-639.258 -202.394)" fill="#4a555f"/>
      </g>
      <path id="tick-svgrepo-com" d="M2.75,10.924l5.4,5.4L18.956,4.75" transform="translate(20.523 18.984)" fill="none" stroke="#4a555f" stroke-linecap="round" stroke-linejoin="round" stroke-width="1.5"/>
    </g>
  </g>
</svg>
