<svg xmlns="http://www.w3.org/2000/svg" width="132.031" height="49.754" viewBox="0 0 132.031 49.754">
  <g id="TPLINK_Logo_2" transform="translate(-29.5 -87.678)">
    <g id="g3777" transform="translate(29.5 87.678)">
      <path id="path3775" d="M43.989,398.062A2.829,2.829,0,0,1,42.2,396.6l-.213-.41-.046-5.285-.046-5.285-5.331-.046-5.331-.046-.42-.247a3.282,3.282,0,0,1-1.15-1.189c-.148-.271-.161-.669-.161-4.942V374.5H53.01v23.6l-4.374.014C46.231,398.123,44.139,398.1,43.989,398.062Z" transform="translate(-29.5 -348.363)" fill="#9f9f9f"/>
      <path id="path3761" d="M184.367,124.511c-.026-.069-.037-2.421-.024-5.228l.024-5.1,2.6-.056c2.682-.058,2.972-.095,4.222-.529a8.011,8.011,0,0,0,5.04-8.119,7.413,7.413,0,0,0-5.911-7.166,11.042,11.042,0,0,0-3.593-.007,8.2,8.2,0,0,0-6.283,6.082,16.515,16.515,0,0,0-.194,3.121c-.039,2.267-.059,2.529-.194,2.533-.834.023-10.175-.021-10.2-.047-.08-.08-.007-5.526.083-6.244A18.448,18.448,0,0,1,180.061,89.63a18.01,18.01,0,0,1,8.407-1.952,18.209,18.209,0,0,1,8.2,1.754,17.235,17.235,0,0,1,9.657,12.589,18.807,18.807,0,0,1-5.354,17.456,18.333,18.333,0,0,1-9.7,4.876,22.828,22.828,0,0,1-3.961.237c-2.395.037-2.9.024-2.94-.08Z" transform="translate(-157.029 -87.678)" fill="#9f9f9f"/>
    </g>
    <g id="g3781" transform="translate(85.68 104.25)">
      <path id="path3773" d="M758.047,359.1a1.252,1.252,0,0,1-.365-.277c-.179-.2-.182-.331-.182-8.066V342.9l.466-.534a9.4,9.4,0,0,1,4.318-2.6,6.814,6.814,0,0,1,2.1-.207,5.929,5.929,0,0,1,3.326.728,7.3,7.3,0,0,1,3.652,8.489,6.854,6.854,0,0,1-5.562,4.99,14.854,14.854,0,0,1-2.2.14c-1.288,0-1.4-.014-1.492-.176a8.15,8.15,0,0,1,0-2.472c.087-.162.2-.176,1.442-.176,1.849,0,2.59-.228,3.5-1.076a4.578,4.578,0,0,0,.224-6.189,4.038,4.038,0,0,0-3.641-1.2,4.692,4.692,0,0,0-2.514,1.218l-.378.41V351.6c0,5.607-.026,7.391-.109,7.474A8.9,8.9,0,0,1,758.047,359.1Z" transform="translate(-747.34 -333.173)" fill="#9f9f9f"/>
      <path id="path3771" d="M649.123,314.518a4.357,4.357,0,0,1-1.907-.9,4.187,4.187,0,0,1-1.117-2.285c-.1-.7-.131-13.145-.036-13.393a14.924,14.924,0,0,1,3.1-1.56c.1.038.129.463.149,2.079l.025,2.031,1.935.025c2.28.029,2.049-.157,2.01,1.616l-.026,1.185-1.959.05c-1.078.028-1.972.058-1.987.068s-.015,1.669,0,3.686c.026,3.488.037,3.683.212,3.987a1.533,1.533,0,0,0,.589.524c.381.193.516.205,2.281.205a7,7,0,0,1,1.985.109,7.822,7.822,0,0,1,0,2.606A28.143,28.143,0,0,1,649.123,314.518Z" transform="translate(-646.006 -293.928)" fill="#9f9f9f"/>
      <path id="path3769" d="M1028.28,293.532l-.28-.236V274.853l1.469-.754a8.413,8.413,0,0,1,1.595-.706c.106.041.126,1.648.126,10.156,0,9.133-.014,10.113-.144,10.163a9.569,9.569,0,0,1-1.314.055c-1.126,0-1.181-.009-1.451-.236Z" transform="translate(-993.19 -273.039)" fill="#9f9f9f"/>
      <path id="path3767" d="M1096.6,356.487c-.5-.2-.487.059-.462-7.251l.023-6.736h3.1l.023,6.965c.018,5.512,0,6.981-.091,7.038A11.311,11.311,0,0,1,1096.6,356.487Z" transform="translate(-1055.115 -335.85)" fill="#9f9f9f"/>
      <path id="path3765" d="M1164.5,352.019c-.465-.258-.459-.182-.462-5.823,0-4.388.018-5.308.127-5.513a8.2,8.2,0,0,1,1.715-1.65,10.637,10.637,0,0,1,2.666-1.2,9.244,9.244,0,0,1,3.645-.048,6.662,6.662,0,0,1,4.875,4.839c.171.667.183,1.008.183,5.065,0,3.882-.016,4.356-.144,4.405a12.728,12.728,0,0,1-2.936-.054,26.361,26.361,0,0,1-.109-4.182c0-3.8-.012-4.112-.18-4.656a3.368,3.368,0,0,0-3.141-2.511,3.993,3.993,0,0,0-3.069,1.046l-.353.319v4.871c0,3.183-.033,4.932-.094,5.047-.086.161-.2.176-1.3.173A4.331,4.331,0,0,1,1164.5,352.019Z" transform="translate(-1116.827 -331.418)" fill="#9f9f9f"/>
      <path id="path3763" d="M1340.6,293.61c-.51-.205-.487.281-.461-9.666l.023-9.151,1.521-.772a8.022,8.022,0,0,1,1.595-.7c.041.041.094,2.787.119,6.1l.046,6.03,2.489-2.939,2.489-2.939h1.817c1.51,0,1.817.022,1.817.13,0,.071-1.253,1.552-2.784,3.291s-2.772,3.213-2.757,3.276,1.417,1.684,3.115,3.6,3.092,3.553,3.1,3.634c.009.13-.2.15-1.837.172l-1.848.025-.2-.221c-.111-.122-1.351-1.617-2.754-3.322s-2.582-3.1-2.62-3.107-.068,1.412-.068,3.144a26.721,26.721,0,0,1-.094,3.326c-.086.161-.2.176-1.3.171A8.071,8.071,0,0,1,1340.6,293.61Z" transform="translate(-1276.875 -272.974)" fill="#9f9f9f"/>
      <path id="path3759" d="M937.827,404.268a18.283,18.283,0,0,1-1.395-3c.037-.1.609-.114,2.85-.095l2.8.024.025,1.542c.019,1.173,0,1.56-.091,1.616a16.458,16.458,0,0,1-2.084.075C938.176,404.427,937.954,404.41,937.827,404.268Z" transform="translate(-909.965 -389.166)" fill="#9f9f9f"/>
      <path id="path2987" d="M1090.593,272.9a1.83,1.83,0,0,1-.466-1.5,1.951,1.951,0,0,1,1.026-1.6,1.565,1.565,0,0,1,1.091-.273,2.023,2.023,0,0,1,1.62.65,2.119,2.119,0,0,1,.094,2.7c-.123.14-.326.159-1.655.159C1091.1,273.034,1090.747,273.006,1090.593,272.9Z" transform="translate(-1049.65 -269.529)" fill="#9f9f9f"/>
    </g>
  </g>
</svg>
