<svg xmlns="http://www.w3.org/2000/svg" width="112.93" height="31.017" viewBox="0 0 112.93 31.017">
  <g id="layer1" transform="translate(-912.465 -300.109)">
    <g id="g5544" transform="translate(912.465 300.109)">
      <path id="path5158" d="M1068.126,330.478l-4.94,9.429c-.32.658-.415.534-.511-.161-.042-.29-1.488-9.268-1.488-9.268h-6.935s2.2,13.209,2.2,13.224c.052.312.232,1.56.308,2.1.516,3.479-1.651,3.3-3.316,3.217-.775-.036-1.614-.153-2.093-.2l-.126-.006c-.106.472-.55,3.808-.55,3.808a27.892,27.892,0,0,0,4.7.476c2.228-.017,5.073-.286,7.128-2.287a17.908,17.908,0,0,0,2.639-3.626l9.165-16.706h-6.179" transform="translate(-1028.537 -322.081)" fill="#9f9f9f"/>
      <path id="path5162" d="M880.76,264.888l-.827,4.484h10.818a.344.344,0,0,1,.309.2.313.313,0,0,1-.048.352L877.8,284.784c-.027.141-.636,3.14-.763,3.789H898.5l.874-4.487H889.01a.33.33,0,0,1-.3-.2.349.349,0,0,1-.036-.131.3.3,0,0,1,.077-.221l12.866-14.414c.029-.143.716-3.573.844-4.235h-21.7" transform="translate(-877.032 -264.853)" fill="#9f9f9f"/>
      <path id="path5166" d="M1216.539,282.274c.328-.432.435-.432.638.083l2.415,6.216h8.659s-5.243-12.6-5.245-12.633c-.005-.079,9.218-11.052,9.218-11.052H1224.8l-4.159,5.046c-.335.378-.481.269-.62-.11l-2.067-4.936h-8.413s4.622,10.88,4.624,10.916c0,.071-10.608,12.769-10.608,12.769h7.685l5.3-6.3" transform="translate(-1161.927 -264.853)" fill="#9f9f9f"/>
      <path id="path5170" d="M1446.245,269.372c.088-.4.819-3.827.962-4.484H1428.39c-.1.468-4.838,22.909-5,23.685h19.27c.085-.408.81-3.833.956-4.487h-10.8a.345.345,0,0,1-.264-.122.361.361,0,0,1-.083-.206.243.243,0,0,1,.011-.082l1.107-4.429a.3.3,0,0,1,.3-.245h9.834c.088-.4.882-3.954,1.019-4.607h-9.918a.335.335,0,0,1-.263-.126.316.316,0,0,1-.078-.2.259.259,0,0,1,.008-.077l.96-4.369a.311.311,0,0,1,.307-.249h10.484" transform="translate(-1353.736 -264.853)" fill="#9f9f9f"/>
      <path id="path5174" d="M1620.708,264.613h-8.288c-.1.469-4.833,22.944-4.993,23.72h18.86c.085-.408.818-3.833.955-4.487H1617.06a.343.343,0,0,1-.261-.122.311.311,0,0,1-.08-.206c0-.022,0-.05,0-.082,0,0,3.825-18.042,3.989-18.823" transform="translate(-1514.312 -264.613)" fill="#9f9f9f"/>
    </g>
  </g>
</svg>
